<?xml version="1.0" standalone="no"?>
<!DOCTYPE svg PUBLIC "-//W3C//DTD SVG 1.1//EN" "http://www.w3.org/Graphics/SVG/1.1/DTD/svg11.dtd" >
<svg xmlns="http://www.w3.org/2000/svg" xmlns:xlink="http://www.w3.org/1999/xlink" version="1.1">
<metadata>
Created by FontForge 20170924 at Mon May 18 12:51:42 2020
 By www-data
</metadata>
<defs>
<font id="DownHill-Regular" horiz-adv-x="541" >
  <font-face 
    font-family="Down Hill"
    font-weight="400"
    font-stretch="normal"
    units-per-em="1000"
    panose-1="0 0 0 0 0 0 0 0 0 0"
    ascent="800"
    descent="-200"
    x-height="604"
    cap-height="746"
    bbox="-190 -232 1176 1020"
    underline-thickness="50"
    underline-position="-125"
    unicode-range="U+000D-FB02"
  />
<missing-glyph horiz-adv-x="250" 
 />
    <glyph glyph-name="fi" unicode="fi" horiz-adv-x="495" 
d="M15 613l350 1l110 5l-15 -138h-136v10q-28 1 -70.5 1.5t-87.5 0.5v-123v-17l157 3v18l146 -4q-1 -37 -2.5 -59.5t-3 -37.5t-3 -27t-2.5 -27.5t-2 -39.5t-1 -63q0 -15 0.5 -30t0.5 -29v-13t-0.5 -16.5t-1 -16.5t-2.5 -12l-129 -5v38.5t-0.5 63.5t-0.5 76.5v77.5l-157 -7
q-1 -29 -1 -57v-57q0 -15 0.5 -30t0.5 -31v-14t-0.5 -20.5t-1 -20t-2.5 -13.5l-136 -2q0 123 -3.5 247.5t-4.5 247.5z" />
    <glyph glyph-name="fl" unicode="fl" horiz-adv-x="691" 
d="M15 613l360 1v-3l128 -3q0 -20 -1 -50t-2 -50q-3 -97 -4 -191.5t-1 -191.5v-30l173 13v-110q-7 0 -30.5 -0.5t-55 -1t-68 -1t-68.5 -1t-56 -1t-32 -0.5l-3 92h3l-7 404q-8 1 -26.5 2t-44 1.5t-55 0.5h-59.5v-123v-17l160 3l-2 -106l-159 -7q-1 -29 -1 -57v-57
q0 -15 0.5 -30t0.5 -31v-14t-0.5 -20.5t-1 -20t-2.5 -13.5l-136 -2q0 123 -3.5 247.5t-4.5 247.5z" />
    <glyph glyph-name=".notdef" horiz-adv-x="250" 
 />
    <glyph glyph-name="uni0000" horiz-adv-x="0" 
 />
    <glyph glyph-name="uni0000" horiz-adv-x="0" 
 />
    <glyph glyph-name="uni000D" unicode="&#xd;" horiz-adv-x="250" 
 />
    <glyph glyph-name="space" unicode=" " horiz-adv-x="240" 
 />
    <glyph glyph-name="zero" unicode="0" horiz-adv-x="520" 
d="M192 579q-1 -9 -5 -24.5t-8 -39.5t-7.5 -59t-3.5 -84q0 -131 27.5 -199.5t84.5 -68.5q38 0 59 28.5t31 68t12 80.5t2 66q0 17 -0.5 47t-4 65t-10.5 71t-19.5 65.5t-32 48.5t-47.5 19q-19 0 -33 -8.5t-24 -21.5t-16 -27t-11 -25l-108 52q2 12 13.5 36t35 47.5t59.5 41
t87 17.5t87.5 -18.5t62.5 -50t41.5 -73t24.5 -86.5t12 -91t3 -86q0 -42 -3 -86t-12 -86.5t-25.5 -80t-42.5 -65.5t-63 -44.5t-88 -16.5q-73 0 -122.5 33t-79.5 86.5t-42.5 120t-12.5 133.5q0 60 10 127t36 132z" />
    <glyph glyph-name="one" unicode="1" horiz-adv-x="314" 
d="M55 536l-60 60l124 172l149 -1l-29 -765l-135 -2v281.5t3 281.5z" />
    <glyph glyph-name="two" unicode="2" horiz-adv-x="491" 
d="M34 553q0 47 16 87t45 69t71 46t93 17q48 0 89.5 -14.5t72 -42t48.5 -67t18 -88.5q0 -54 -20.5 -101.5t-52.5 -89.5t-69.5 -78t-71 -68t-58.5 -60.5t-31 -53.5l243 -5l-11 -107h-133h-26.5t-47.5 0.5t-57.5 1t-56.5 1.5t-44.5 2.5t-22.5 2.5l-4 89q0 28 22 59t55 65.5
t71.5 71.5t71.5 77.5t55 83t22 86.5q0 24 -6.5 44.5t-17.5 36.5t-26.5 25t-32.5 9q-32 0 -56 -31t-29 -82z" />
    <glyph glyph-name="three" unicode="3" horiz-adv-x="510" 
d="M116 164q18 -31 38 -48.5t58 -17.5q30 0 56 11t44.5 29.5t29.5 43.5t11 53q0 50 -34.5 76.5t-100.5 26.5q-11 0 -29 -1.5t-43 -6.5l28 116q25 6 53 16.5t51.5 27t39 40t15.5 54.5q0 20 -7 34t-18 22.5t-25.5 12.5t-29.5 4q-41 0 -69 -21t-40 -45l-109 23q9 33 25 62.5
t42 51.5t64 35t92 13q29 0 67.5 -5.5t74 -24t60 -53t24.5 -92.5q0 -37 -10.5 -65.5t-27 -50t-36.5 -38.5t-38 -31q26 -13 50.5 -31t44 -43t31.5 -56.5t12 -70.5q0 -57 -25 -99.5t-63.5 -71t-85 -42.5t-89.5 -14q-37 0 -74.5 10t-70 28.5t-56.5 44.5t-35 58z" />
    <glyph glyph-name="four" unicode="4" 
d="M17 283l315 485l153 1l-7 -487l39 1l-7 -110l-32 -1l-12 -170l-146 -4v174l-272 3zM179 283h70.5t70.5 -1l2 228q-7 -11 -23 -36t-36 -57t-42 -67.5t-42 -66.5z" />
    <glyph glyph-name="five" unicode="5" horiz-adv-x="520" 
d="M68 765l389 -1l-13 -107l-257 -6l-7 -181q12 7 33 9t37 2q53 0 96 -16t74 -47t47.5 -76t16.5 -103q0 -57 -16.5 -103.5t-48.5 -79.5t-79.5 -51t-109.5 -18q-40 0 -75.5 8.5t-63 28t-45.5 51.5t-24 78l114 6q15 -25 33.5 -43.5t51.5 -18.5q19 0 38 7t34 23.5t24.5 43
t9.5 64.5q0 61 -26.5 98.5t-81.5 37.5q-29 0 -62 -11t-52 -29l-68 70z" />
    <glyph glyph-name="six" unicode="6" horiz-adv-x="527" 
d="M18 262q0 54 14 124.5t41 142t66.5 136t90.5 105.5l136 -14q-55 -54 -96.5 -131t-68.5 -157q23 12 53 18t59 6q50 0 87 -17.5t61 -49t36 -74t12 -93.5q0 -58 -15 -107.5t-44.5 -85.5t-73.5 -56.5t-102 -20.5q-53 0 -100 18t-81.5 53t-54.5 86t-20 117zM158 250
q0 -37 8 -69t23.5 -56t38 -37.5t50.5 -13.5q30 0 49.5 15.5t30.5 40t15 55t4 60.5q0 22 -3 48.5t-12 49t-26.5 37.5t-46.5 15q-12 0 -27 -2.5t-30 -7t-28.5 -11t-21.5 -13.5l6 65q-15 -51 -22.5 -96t-7.5 -80z" />
    <glyph glyph-name="seven" unicode="7" horiz-adv-x="429" 
d="M39 765q41 0 90 0.5t100 1t100 1t90 0.5l-20 -124l-201 -644h-142l204 647q-60 -1 -114.5 -2t-114.5 -1z" />
    <glyph glyph-name="eight" unicode="8" horiz-adv-x="535" 
d="M30 190q0 54 22 104.5t64 86.5q-32 23 -53.5 58.5t-21.5 89.5q0 47 17 90.5t48 76.5t73 52.5t92 19.5q45 0 85 -16.5t70 -46.5t47.5 -71.5t17.5 -91.5q0 -48 -15.5 -86t-39.5 -75l-78 15q28 -11 54 -25t46.5 -34t32.5 -49t12 -71q0 -51 -19 -93t-52 -72.5t-78 -47
t-98 -16.5q-44 0 -85 12.5t-72.5 37.5t-50 63t-18.5 89zM354 196q0 33 -17.5 55.5t-44.5 39t-61 30.5t-67 31l37 -40q-10 -5 -21 -16t-20 -27t-14.5 -35t-5.5 -40q0 -29 10.5 -49t27 -32t36.5 -17t38 -5q29 0 48.5 10t31.5 25.5t17 34t5 35.5zM281 658q-39 0 -64 -30
t-25 -79q0 -31 10.5 -53t28 -37.5t40.5 -27t48 -21.5q12 11 23.5 28t20 36.5t14 40t5.5 38.5q0 23 -8.5 42t-22.5 33t-32 22t-38 8z" />
    <glyph glyph-name="nine" unicode="9" horiz-adv-x="531" 
d="M215 271q-93 0 -145 62t-52 173q0 57 15 106.5t44.5 85.5t73.5 56.5t102 20.5q53 0 100 -18t81.5 -52.5t54.5 -84t20 -113.5q0 -56 -16 -128t-45.5 -144t-71 -136.5t-92.5 -105.5l-123 14q55 54 96.5 131t68.5 157q-23 -12 -52.5 -18t-58.5 -6zM258 689q-27 0 -47 -15.5
t-33.5 -40.5t-20.5 -57t-7 -64q0 -28 5 -54t16 -46t28 -32t41 -12q11 0 26 2.5t29.5 7t28 11t21.5 13.5l-6 -65q15 51 22.5 96t7.5 80q0 37 -8 69t-22.5 56t-35 37.5t-45.5 13.5z" />
    <glyph glyph-name="period" unicode="." horiz-adv-x="214" 
d="M36 119l132 7l-15 -138h-115z" />
    <glyph glyph-name="comma" unicode="," horiz-adv-x="213" 
d="M171 99l-75 -198l-76 6l39 216z" />
    <glyph glyph-name="hyphen" unicode="-" horiz-adv-x="291" 
d="M40 377l207 25l2 -115l-204 -20z" />
    <glyph glyph-name="plus" unicode="+" horiz-adv-x="477" 
d="M424 389l9 -94l-140 -4l3 -152l-116 -12l-5 161l-138 -4l-8 97l143 3l-4 149l120 8l3 -155z" />
    <glyph glyph-name="asterisk" unicode="*" horiz-adv-x="306" 
d="M32 581l64 28l-77 31l40 83l64 -58l-9 73h79l-1 -76l46 48l35 -78l-66 -26l71 -15l-38 -85l-55 57l7 -75l-81 -11l10 80l-68 -65z" />
    <glyph glyph-name="asciicircum" unicode="^" horiz-adv-x="455" 
d="M122 577l-91 23l143 206h100l137 -202l-93 -27l-94 145z" />
    <glyph glyph-name="tilde" unicode="&#x2dc;" horiz-adv-x="380" 
d="M236 545q-21 0 -36.5 8.5t-26.5 18t-18 18t-13 8.5q-8 0 -15 -14.5t-7 -26.5l-78 15q0 20 7.5 42t20.5 40t30.5 29.5t36.5 11.5q17 0 30.5 -8.5t24.5 -18.5t20 -18.5t17 -8.5q7 0 11 6t6.5 14t3.5 15.5t1 9.5l79 -11q0 -22 -5.5 -45t-16.5 -42t-29 -31t-43 -12z" />
    <glyph glyph-name="slash" unicode="/" horiz-adv-x="421" 
d="M5 0l376 767l101 -12l-300 -637q-4 -8 -13.5 -29.5t-20 -44t-20 -41.5t-12.5 -23z" />
    <glyph glyph-name="backslash" unicode="\" horiz-adv-x="429" 
d="M327 -20q-3 4 -12.5 23t-20 41.5t-20 44t-13.5 29.5l-300 637l101 12l376 -767z" />
    <glyph glyph-name="colon" unicode=":" horiz-adv-x="214" 
d="M41 595l132 7l-15 -138h-115zM41 119l132 7l-15 -138h-115z" />
    <glyph glyph-name="semicolon" unicode=";" horiz-adv-x="226" 
d="M64 595l132 7l-15 -138h-115zM177 99l-75 -198l-76 6l39 216z" />
    <glyph glyph-name="less" unicode="&#x3c;" horiz-adv-x="474" 
d="M398 207l-21 -124l-301 195l4 128l307 179l30 -91l-247 -131v-4z" />
    <glyph glyph-name="equal" unicode="=" horiz-adv-x="572" 
d="M501 207l-396 -11l-8 116l385 8zM501 393l-396 -11l-8 115q97 0 192.5 4t192.5 4z" />
    <glyph glyph-name="greater" unicode="&#x3e;" horiz-adv-x="482" 
d="M95 461l21 124l301 -195l-4 -128l-307 -179l-30 91l247 131v4z" />
    <glyph glyph-name="exclam" unicode="!" horiz-adv-x="225" 
d="M48 756l122 -1l-15 -558l-121 8zM36 119l106 7l11 -138h-115z" />
    <glyph glyph-name="question" unicode="?" horiz-adv-x="413" 
d="M175 638q-20 0 -41 -9.5t-40 -42.5l-94 13q9 35 27 64.5t42.5 50.5t55.5 32.5t66 11.5q44 0 79.5 -17.5t60.5 -46t38.5 -65t13.5 -73.5q0 -47 -19.5 -100.5t-45.5 -106.5t-52.5 -101t-41.5 -84l-110 12q17 38 41 81t45.5 89t36.5 94.5t15 96.5q0 58 -22 79.5t-55 21.5z
M113 113l107 1l3 -107l-106 -19z" />
    <glyph glyph-name="quotesingle" unicode="'" horiz-adv-x="171" 
d="M32 601q0 37 0.5 82t0.5 82l89 -8l9 -166z" />
    <glyph glyph-name="quotedbl" unicode="&#x22;" horiz-adv-x="303" 
d="M164 601q0 37 0.5 82t0.5 82l89 -8l9 -166zM36 601q0 37 0.5 82t0.5 82l89 -8l9 -166z" />
    <glyph glyph-name="numbersign" unicode="#" horiz-adv-x="571" 
d="M36 325h39t38 -1l23 113h-29h-28q-10 0 -19 0.5t-15 2.5l15 87h46.5t46.5 -1l39 196l120 -5q0 -17 -4.5 -33t-7.5 -33l-25 -127q15 0 27.5 -0.5t24 -1t24 -1t28.5 -0.5l39 194l120 -5q0 -16 -4.5 -32t-7.5 -32l-25 -126h12h19q6 0 11.5 -0.5t11.5 -2.5l-15 -87h-16.5
h-12.5t-12.5 0.5t-15.5 0.5l-23 -113h29h19q6 0 11.5 -0.5t11.5 -2.5l-15 -87h-37t-37 1l-42 -204l-120 5q0 16 4.5 32t7.5 32l27 137q-30 1 -50.5 1.5t-51.5 1.5l-40 -205l-120 5q0 17 4.5 33t7.5 33l27 135h-13h-28q-10 0 -19 0.5t-15 2.5zM235 322q15 0 27.5 -0.5t24 -1
t23.5 -0.5h27l23 113q-31 1 -51.5 1.5t-51.5 0.5z" />
    <glyph glyph-name="at" unicode="@" horiz-adv-x="839" 
d="M487 -63q-107 0 -190.5 21.5t-140.5 66.5t-86.5 116t-29.5 170q0 94 26.5 181.5t78 155.5t127 109t172.5 41q88 0 154.5 -33.5t111.5 -87.5t67.5 -122t22.5 -137q0 -35 -5.5 -75.5t-15.5 -80.5t-23.5 -76.5t-30 -64.5t-34.5 -45t-37 -17l-95 7l-55 201l-143 -22l-22 -115
l-104 -5l21 110q-4 0 -14.5 -3t-14.5 -2l-10 74q1 0 9 1t18 2t18 2t9 1l53 304l166 7l137 -475l21 -1q7 20 14 42t13 50t9.5 63t3.5 79q0 75 -12.5 135t-40.5 102t-72.5 64.5t-108.5 22.5q-83 0 -140 -35t-92 -90.5t-50.5 -123t-15.5 -132.5q0 -79 21 -134t61 -89.5t99 -50
t135 -15.5zM474 347l-52 187l-50 -208z" />
    <glyph glyph-name="dollar" unicode="$" horiz-adv-x="549" 
d="M125 235q0 -32 10.5 -55.5t26.5 -40.5t35.5 -28t37.5 -17q-1 52 -2 103.5t-2 103.5q-36 14 -71 32t-62.5 44.5t-45 64t-17.5 89.5q0 41 11.5 79t35 69t58.5 52.5t82 30.5v43l111 9q0 -13 0.5 -25.5t0.5 -25.5q39 -6 71 -20t56.5 -34t42 -44.5t27.5 -50.5l-118 -40
q-7 33 -26.5 57.5t-51.5 34.5q2 -72 2 -144t1 -144q36 -13 71 -27t63 -35.5t45.5 -52.5t17.5 -78q0 -46 -17 -79.5t-44.5 -56.5t-63 -36t-72.5 -18v-60l-101 -5v31.5t-1 32.5q-44 5 -82.5 21t-66.5 41.5t-44 61t-16 80.5zM173 534q0 -38 15 -63t40 -42q-1 54 -2 108.5
t-2 108.5q-24 -19 -37.5 -48t-13.5 -64zM338 97q23 10 41 29t18 49q0 28 -16.5 46.5t-42.5 33.5v-158z" />
    <glyph glyph-name="Euro" unicode="&#x20ac;" horiz-adv-x="586" 
d="M376 521l20 -112l-160 -4q-2 -17 -2 -31v-26q15 1 30.5 1t30.5 1q22 1 43.5 2t43.5 1l20 -112q-8 -3 -29 -4t-45.5 -1.5t-47 -1t-33.5 -0.5h-6q4 -27 11 -52t18 -44t27.5 -30t39.5 -11q41 0 64 9.5t35 25t15.5 35.5t4.5 40l112 -20q0 -45 -19 -82.5t-50.5 -64.5
t-71.5 -42.5t-83 -15.5q-57 0 -99 19.5t-71 53.5t-46 78.5t-26 95.5h-49l-8 116h48v6v24.5t1 25.5l-47 -1l-13 113l74 2q10 49 27.5 95t46 82t68.5 57.5t94 21.5q42 0 82 -13t71.5 -37t51 -57t19.5 -73l-112 -20q-7 20 -13 35.5t-14 26.5t-19.5 17t-31.5 6q-27 0 -48 -11
t-36 -30t-25.5 -44t-17.5 -53z" />
    <glyph glyph-name="percent" unicode="%" horiz-adv-x="811" 
d="M641 -23q-46 0 -78 16.5t-52 44.5t-29.5 64t-9.5 76q0 39 9.5 80t30.5 74.5t54.5 54.5t81.5 21q46 0 76.5 -19t48.5 -49.5t25.5 -69t7.5 -77.5q0 -40 -8 -79t-27 -69.5t-50.5 -49t-79.5 -18.5zM14 560q0 39 8.5 79t28.5 72t53 52t81 20q46 0 76.5 -19t48.5 -49.5
t25.5 -69t7.5 -77.5q0 -40 -8 -79t-27 -69.5t-50.5 -49t-79.5 -18.5q-46 0 -77 17.5t-50.5 46.5t-28 66.5t-8.5 77.5zM445 579q10 20 20.5 44.5t21.5 50t22 50t22 43.5l134 3q-3 -3 -25.5 -45t-56 -109t-75 -150.5t-84 -170.5t-81.5 -169.5t-68 -146.5l-114 6zM580 173
q0 -21 2.5 -41t9 -35.5t18.5 -25t31 -9.5q27 0 43 12.5t24.5 32t10.5 42.5t2 44q0 19 -2 42t-9.5 42.5t-22 32.5t-39.5 13q-23 0 -36.5 -16.5t-20.5 -40.5t-9 -49.5t-2 -43.5zM185 698q-17 0 -28.5 -15t-18 -37t-9.5 -46.5t-3 -44.5t3 -41t10.5 -38t21 -28t33.5 -11
q21 0 34 12.5t19.5 32t8.5 42.5t2 44q0 19 -2 42t-9.5 42.5t-22 32.5t-39.5 13z" />
    <glyph glyph-name="ampersand" unicode="&#x26;" horiz-adv-x="875" 
d="M366 -23q-58 0 -112 14t-96 42t-67 69.5t-25 95.5q0 47 18 79.5t44.5 55t55.5 38t50 28.5q-15 9 -35 24.5t-38 38.5t-30.5 52t-12.5 65q0 46 22 81.5t57 59.5t79.5 36t90.5 12q50 0 91.5 -14t73 -38t51.5 -57.5t26 -72.5l-103 -27q-8 50 -33 74.5t-81 24.5
q-65 0 -99.5 -30t-34.5 -79q0 -18 5 -35.5t15.5 -32t26.5 -24.5t38 -13l40 -5l-6 -102l-52 -6q-53 -6 -76 -40.5t-23 -77.5q0 -33 11.5 -54t31 -33t45.5 -16.5t56 -4.5q39 0 74 7t61.5 23t42 41t15.5 62q0 48 -24 80.5t-56 47.5l-17 98q39 2 82 11t79.5 28.5t60.5 51
t24 77.5q0 28 -12 46.5t-44 40.5l72 87q23 -14 44 -34t37 -44.5t25.5 -52.5t9.5 -57q0 -42 -18.5 -78t-49 -65t-68.5 -51t-77 -37q12 -15 21 -29.5t15.5 -30t9.5 -34t3 -41.5q0 -69 -25.5 -120.5t-68.5 -86t-100 -51.5t-120 -17z" />
    <glyph glyph-name="parenleft" unicode="(" horiz-adv-x="296" 
d="M15 341q0 73 16.5 148t46 142.5t70.5 122t90 86.5l58 -61q-34 -35 -60.5 -85t-44.5 -111t-27.5 -129.5t-9.5 -139.5q0 -55 6 -103t20 -92t37 -85.5t57 -84.5l-55 -55q-36 16 -72.5 58.5t-66 102.5t-47.5 133.5t-18 152.5z" />
    <glyph glyph-name="parenright" unicode=")" horiz-adv-x="307" 
d="M292 341q0 -79 -18 -152.5t-47.5 -133.5t-66 -102.5t-72.5 -58.5l-55 55q34 43 57 84.5t37 85.5t20 92t6 103q0 71 -9 139.5t-27 129.5t-44.5 111t-61.5 85l58 61q49 -32 90 -86.5t70.5 -122t46 -142.5t16.5 -148z" />
    <glyph glyph-name="braceleft" unicode="{" horiz-adv-x="314" 
d="M137 602q0 4 0.5 23.5t5 46t13.5 56.5t25.5 55.5t43 42t64.5 16.5l25 -74q-33 -7 -48.5 -34.5t-20.5 -61.5t-4 -68.5t1 -56.5q0 -56 -19 -90t-55 -63q23 -20 40.5 -47t17.5 -59q0 -58 -7 -100.5t-7.5 -78.5t13 -69t53.5 -71l-43 -68q-45 18 -71 46t-38.5 60.5t-15 67
t0 67t6.5 60.5t4 46q0 23 -7.5 40t-17 28.5t-19.5 18t-16 9.5l2 101q9 5 21.5 13t24.5 25.5t20 45.5t8 73z" />
    <glyph glyph-name="braceright" unicode="}" horiz-adv-x="274" 
d="M193 602q0 -45 8 -73t20 -45.5t24.5 -25.5t21.5 -13l2 -101q-6 -3 -16 -9.5t-19.5 -18t-17 -28.5t-7.5 -40q0 -18 4 -46t6.5 -60.5t0 -67t-15 -67t-38.5 -60.5t-71 -46l-43 68q41 38 54 71t12.5 69t-7.5 78.5t-7 100.5q0 32 17.5 59t40.5 47q-36 29 -55 63t-19 90
q0 22 1 56.5t-4 68.5t-20.5 61.5t-48.5 34.5l25 74q38 0 64.5 -16.5t43 -42t25.5 -55.5t13.5 -56.5t5 -46t0.5 -23.5z" />
    <glyph glyph-name="bar" unicode="|" horiz-adv-x="318" 
d="M201 812q2 -19 1.5 -42.5t-0.5 -43.5q1 -51 2 -105t2 -105q3 -151 6.5 -300.5t3.5 -300.5l-120 5q-2 17 -1.5 42.5t0.5 43.5l-3 201q-3 152 -7 306t-4 306z" />
    <glyph glyph-name="bracketleft" unicode="[" horiz-adv-x="283" 
d="M289 766l-122 -4q-4 -99 -4.5 -199t-0.5 -199.5t-1.5 -199.5t-6.5 -199l93 1l10 -88h-221l11 972q53 0 113 -0.5t113 -0.5z" />
    <glyph glyph-name="bracketright" unicode="]" horiz-adv-x="251" 
d="M6 849q53 0 113 0.5t113 0.5l11 -972h-221l10 88l93 -1q-5 99 -6.5 199t-1.5 199.5t-0.5 199.5t-4.5 199l-122 4z" />
    <glyph glyph-name="quoteleft" unicode="&#x2018;" horiz-adv-x="164" 
d="M121 549l-104 11l91 190l59 -24z" />
    <glyph glyph-name="quoteright" unicode="&#x2019;" horiz-adv-x="172" 
d="M52 739l112 1l-91 -190l-59 24z" />
    <glyph glyph-name="quotedblleft" unicode="&#x201c;" horiz-adv-x="332" 
d="M251 549l-104 11l91 190l59 -24zM121 549l-104 11l91 190l59 -24z" />
    <glyph glyph-name="quotedblright" unicode="&#x201d;" horiz-adv-x="315" 
d="M178 739l112 1l-91 -190l-59 24zM52 739l112 1l-91 -190l-59 24z" />
    <glyph glyph-name="quotesinglbase" unicode="&#x201a;" horiz-adv-x="227" 
d="M89 83l112 1l-91 -190l-59 24z" />
    <glyph glyph-name="quotedblbase" unicode="&#x201e;" horiz-adv-x="361" 
d="M199 83l112 1l-91 -190l-59 24zM57 83l112 1l-91 -190l-59 24z" />
    <glyph glyph-name="bullet" unicode="&#x2022;" horiz-adv-x="333" 
d="M70 350q0 42 25.5 67.5t67.5 25.5t67.5 -25.5t25.5 -67.5t-25.5 -67.5t-67.5 -25.5t-67.5 25.5t-25.5 67.5z" />
    <glyph glyph-name="underscore" unicode="_" horiz-adv-x="547" 
d="M522 -138q-9 -3 -19 -3q-14 -1 -27.5 -1h-27.5l-113 -2q-71 -2 -140.5 -3.5t-140.5 -1.5l-8 120q85 0 169.5 2t169.5 4q29 1 59 1.5t59 0.5z" />
    <glyph glyph-name="endash" unicode="&#x2013;" horiz-adv-x="631" 
d="M573 229q-9 -3 -19 -3q-14 -1 -29 -1h-29l-120 -2q-75 -2 -150 -3.5t-150 -1.5l-8 120q91 0 180 2t180 4q32 1 63 1.5t63 0.5z" />
    <glyph glyph-name="emdash" unicode="&#x2014;" horiz-adv-x="946" 
d="M808 225q-185 0 -367 -3.5t-367 -3.5l-14 120q146 0 291 2t291 4q53 1 104.5 1.5t104.5 0.5l19 -117q-7 -3 -20 -3.5t-25 -0.5h-17z" />
    <glyph glyph-name="macron" unicode="&#xaf;" horiz-adv-x="408" 
d="M60 665q2 1 13.5 1h30.5q27 0 64.5 -0.5t73.5 -1t64 -1t36 -0.5l12 -78q-2 -1 -21.5 -2.5t-48 -3t-62 -2.5t-64 -2.5t-53 -2t-30.5 -0.5z" />
    <glyph glyph-name="logicalnot" unicode="&#xac;" horiz-adv-x="594" 
d="M434 388q-84 -1 -162.5 -1.5t-162.5 -0.5q-12 0 -28.5 0.5t-27.5 3.5v114l162 3l333 -14q2 -6 3.5 -31t2 -54.5t0.5 -55.5v-35v-39q0 -5 0.5 -11t0.5 -11l-116 -19q-2 6 -3 19.5t-1.5 29t-0.5 30v21.5v51z" />
    <glyph glyph-name="trademark" unicode="&#x2122;" horiz-adv-x="456" 
d="M267 773l44 -134l48 133l78 -2l-11 -277h-60v168l-34 -140l-34 -6l-41 143l-8 -165h-57l-3 279zM19 773q18 0 39.5 0.5t44.5 0.5t44.5 0.5t39.5 0.5l-4 -58q-4 -2 -8 -2h-9h-24v-8q-3 -82 -3 -165q0 -10 0.5 -26.5t-2.5 -24.5l-66 3q0 55 -0.5 109.5t-0.5 109.5h-47z" />
    <glyph glyph-name="registered" unicode="&#xae;" horiz-adv-x="818" 
d="M404 -35q-83 0 -151.5 28.5t-117 79t-75 120t-26.5 151.5q0 60 15 117t44.5 106t72.5 88.5t99 64.5q74 34 152 34t150 -32q55 -24 95.5 -61.5t67 -84.5t39.5 -101.5t13 -113.5q0 -85 -26 -157.5t-75 -125.5t-119 -83t-158 -30zM124 344q0 -64 19.5 -117t55.5 -91
t88 -59.5t117 -21.5q69 0 122.5 23t90.5 63.5t56 96.5t19 123q0 63 -19 118t-54.5 96t-86.5 65t-115 24q-66 0 -120.5 -26.5t-92.5 -70.5t-59 -102t-21 -121zM250 605q2 0 20.5 0.5t42.5 1.5t47 1.5t32 0.5q32 0 66 -3.5t63 -17t47.5 -40t18.5 -71.5q0 -64 -38.5 -103.5
t-103.5 -63.5l157 -122l-85 -66l-135 147v-49v-34l1 -56v-6l-110 3l-7 388v11q-4 -1 -11 -1zM383 358q26 9 45 23.5t32 31t19 33.5t6 31q0 34 -28.5 44t-69.5 10q0 -2 -0.5 -5t-0.5 -5q-2 -40 -2.5 -81t-0.5 -82z" />
    <glyph glyph-name="copyright" unicode="&#xa9;" horiz-adv-x="818" 
d="M409 618q46 0 80.5 -16.5t56.5 -43.5t31.5 -60.5t4.5 -68.5l-88 -5q0 15 -3.5 34.5t-12.5 37t-23.5 29t-35.5 11.5q-27 0 -44 -18.5t-26 -47t-12.5 -62t-3.5 -62.5q0 -88 22 -132t61 -44q23 0 39 14t26.5 34t15.5 42t5 38l96 -4q0 -41 -14 -78.5t-38.5 -66t-57.5 -45
t-71 -16.5q-34 0 -71 15.5t-67.5 48t-50 83t-19.5 120.5q0 48 10.5 95t34.5 84.5t62 60.5t93 23zM124 344q0 -64 19.5 -117t55.5 -91t88 -59.5t117 -21.5q69 0 122.5 23t90.5 63.5t56 96.5t19 123q0 63 -19 118t-54.5 96t-86.5 65t-115 24q-66 0 -120.5 -26.5t-92.5 -70.5
t-59 -102t-21 -121zM34 344q0 60 15 117t44.5 106t72.5 88.5t99 64.5q74 34 152 34t150 -32q55 -24 95.5 -61.5t67 -84.5t39.5 -101.5t13 -113.5q0 -85 -26 -157.5t-75 -125.5t-119 -83t-158 -30q-83 0 -151.5 28.5t-117 79t-75 120t-26.5 151.5z" />
    <glyph glyph-name="currency" unicode="&#xa4;" horiz-adv-x="565" 
d="M44 130q2 3 16.5 21t30.5 36q-51 65 -51 157q0 51 16.5 96t46.5 80q-8 10 -18 21.5t-18.5 22t-15 18.5t-7.5 10l68 56q2 -1 8.5 -8.5t15.5 -18t19 -22.5t18 -22q50 29 114 29q59 0 107 -25q8 10 17.5 21t18 21t15 17t7.5 8l68 -56q-1 -2 -6.5 -9t-14 -17t-17.5 -21
t-18 -21q28 -34 43 -77.5t15 -92.5q0 -96 -51 -164q16 -19 31.5 -38t17.5 -22l-68 -56l-6.5 6.5t-12.5 13.5t-15 18t-16 19q-26 -14 -57 -22t-66 -8q-66 0 -119 28q-7 -9 -15.5 -18.5t-15 -17t-11.5 -13t-6 -6.5zM287 516q-36 0 -65 -14t-49.5 -38t-31.5 -55t-11 -65
q0 -69 39.5 -111t109.5 -42q37 0 65.5 12t48 34t29.5 51.5t10 65.5q0 33 -9.5 62.5t-28 51.5t-45.5 35t-62 13z" />
    <glyph glyph-name="cent" unicode="&#xa2;" horiz-adv-x="564" 
d="M38 337q0 56 12 110.5t37.5 101.5t65 83.5t94.5 57.5l-2 86l90 7l1 -79q32 -3 63.5 -18t56 -38.5t40 -53.5t15.5 -63l-104 -19q-5 14 -9.5 27.5t-12 25t-18.5 19t-29 10.5l8 -477q12 6 23.5 18.5t20.5 28t14.5 31.5t5.5 28l92 -37q0 -33 -12.5 -62.5t-33.5 -53.5t-49 -41
t-59 -24l1 -55l-91 -2v55q-43 7 -78 32q-72 51 -107 128t-35 174zM168 334q0 -26 3.5 -58.5t13 -64t27 -57.5t45.5 -39l-1 92l-7 363q-24 -20 -40 -49t-25 -61t-12.5 -65t-3.5 -61z" />
    <glyph glyph-name="sterling" unicode="&#xa3;" horiz-adv-x="548" 
d="M33 381h58q-6 32 -11.5 64.5t-5.5 68.5q0 51 14.5 98t42 82.5t68 56.5t91.5 21q39 0 78.5 -13t71 -38.5t51.5 -63.5t20 -89l-96 -37q-3 21 -7.5 44t-15.5 42.5t-29.5 32t-50.5 12.5t-53 -13t-33 -34t-17 -47.5t-5 -53.5q0 -36 5.5 -69t11.5 -65q22 0 46.5 0.5t43.5 0.5
l4 -107q-5 -2 -27 -3.5t-50 -2.5q0 -45 -5 -86t-17 -84h213q22 0 40 -1t25 -3l-17 -97h-130h-45h-54.5t-58.5 0.5t-48.5 1.5t-24.5 3l-44 65q0 15 5.5 35t12.5 43.5t12.5 49.5t5.5 53v20h-88z" />
    <glyph glyph-name="yen" unicode="&#xa5;" horiz-adv-x="536" 
d="M152 746l110 -269l150 272l124 -3q0 -8 -13.5 -37t-34 -69t-44.5 -85t-46 -85t-38.5 -69t-20.5 -36h35l19 -107q-4 -2 -25 -3t-44 -2v-14h61l19 -107q-2 -1 -10.5 -1.5t-20.5 -1.5t-25 -1.5t-25 -0.5q0 -11 1 -29.5t1.5 -37.5t0.5 -35.5t-3 -24.5l-119 -3q0 12 -0.5 29
t-0.5 35v35v28h-69l-10 110h40t40 1v9v6h-71l-10 110h63l-66 136l-104 244z" />
    <glyph glyph-name="florin" unicode="&#x192;" horiz-adv-x="485" 
d="M135 187q0 -19 2 -46.5t11 -43.5q5 -7 16 -7q4 6 7 16t5 21.5t3.5 22l2.5 17.5q7 51 8.5 115.5t3.5 131.5h-14.5h-22t-22 0.5t-13.5 1.5l10 109h69q3 34 10.5 76.5t24 79.5t44.5 62t73 25q42 0 66 -17t47 -50l-47 -98q-12 20 -20.5 34t-22.5 14q-4 0 -12 -3
q-10 -4 -15.5 -19.5t-8.5 -34.5t-4.5 -38t-2.5 -31h44l19 -107q-3 -1 -10.5 -2t-18 -1.5t-21.5 -0.5h-20q-2 -52 -3.5 -107t-6 -106t-13 -95t-24.5 -74q-15 -29 -46 -45.5t-64 -16.5q-39 0 -64.5 16.5t-40.5 44t-21.5 63.5t-6.5 76z" />
    <glyph glyph-name="minus" unicode="&#x2212;" horiz-adv-x="572" 
d="M501 285q-6 -2 -22.5 -3.5t-36.5 -2t-41.5 -1t-38.5 -0.5h-27q-58 -2 -115 -3t-115 -1l-8 115q72 0 143 2t143 4q25 1 49.5 1.5t49.5 0.5z" />
    <glyph glyph-name="plusminus" unicode="&#xb1;" horiz-adv-x="572" 
d="M89 449q32 0 66.5 0.5t67.5 1.5q-1 32 -1.5 62.5t-0.5 63.5l131 8q0 -34 0.5 -65.5t1.5 -65.5q8 0 17 0.5t18 0.5q25 0 46.5 1t46.5 1l19 -112q-7 -3 -24 -4t-38.5 -2t-43.5 -1h-38q0 -10 0.5 -19.5t0.5 -19.5q0 -25 1 -49.5t1 -49.5l-127 -21q-3 8 -4 27t-2 42.5
t-1.5 47t-0.5 39.5q-31 -1 -63.5 -1h-64.5zM97 123q72 0 143 2t143 4q25 1 49.5 1.5t49.5 0.5l19 -112q-6 -2 -35 -3.5t-69 -3t-86.5 -2t-88.5 -1t-74 -1t-43 -0.5z" />
    <glyph glyph-name="multiply" unicode="&#xd7;" horiz-adv-x="572" 
d="M194 571q25 -25 47 -45.5t48 -44.5q26 24 48.5 45t47.5 46l77 -91q-23 -23 -44 -42t-44 -41l13 -13t13 -12q18 -17 36 -34.5t35 -34.5l-66 -95q-7 3 -21.5 16.5t-32 30t-34 33t-27.5 26.5q-10 -10 -25.5 -24.5t-30.5 -28.5t-28 -25t-20 -14l-79 82q17 17 35 34.5t36 34.5
q7 6 13 12l13 13q-23 22 -43.5 40.5t-43.5 41.5z" />
    <glyph glyph-name="divide" unicode="&#xf7;" horiz-adv-x="475" 
d="M163 595l132 7l-15 -138h-115zM163 119l132 7l-15 -138h-115zM431 268q-6 -2 -22.5 -3.5t-36.5 -2t-41.5 -1t-38.5 -0.5h-27q-58 -2 -115 -3t-115 -1l-8 115q72 0 143 2t143 4q25 1 49.5 1.5t49.5 0.5z" />
    <glyph glyph-name="brokenbar" unicode="&#xa6;" horiz-adv-x="318" 
d="M87 444l-4 188t-2 187l120 -7q2 -19 1.5 -42.5t-0.5 -43.5q1 -51 2 -105t2 -105q0 -18 0.5 -36t1.5 -36h-121zM212 256q2 -85 3 -170t1 -171l-120 5q-2 17 -1.5 42.5t0.5 43.5l-3 201q0 12 -0.5 24.5t-0.5 24.5h121z" />
    <glyph glyph-name="degree" unicode="&#xb0;" horiz-adv-x="373" 
d="M129 614q0 -38 13 -60.5t42 -22.5q30 0 44.5 23.5t14.5 59.5q0 14 -3 28t-9.5 25.5t-16.5 18.5t-23 7q-35 0 -48.5 -23t-13.5 -56zM34 614q0 75 41.5 121t117.5 46q38 0 65 -13t44 -35t25 -52t8 -65q0 -36 -9 -67.5t-27.5 -54t-47 -35.5t-67.5 -13q-37 0 -65.5 13
t-47 35.5t-28 53t-9.5 66.5z" />
    <glyph glyph-name="ordfeminine" unicode="&#xaa;" horiz-adv-x="331" 
d="M120 772l99 -3l37 -187l25 4l9 -85l-18 -2l18 -89l-82 -6l-9 87l-55 -6l-17 -93l-90 -5l22 101l-1 60l14 2zM191 571l-12 112l-21 -118z" />
    <glyph glyph-name="ordmasculine" unicode="&#xba;" horiz-adv-x="350" 
d="M134 580q0 -8 1 -23.5t4.5 -30.5t11 -26t19.5 -11q13 0 20.5 11.5t11.5 27.5t5 31.5t1 24.5q0 8 -1 24t-5 31.5t-11 27t-18 11.5q-3 0 -9 -2.5t-7 -6.5q-7 -5 -11.5 -16.5t-7 -25t-3.5 -26.5t-1 -21zM32 580q0 30 7.5 63t24 60.5t43.5 46t66 18.5q36 0 60 -18t38.5 -45
t20.5 -59.5t6 -61.5q0 -30 -6 -63t-21 -60t-39.5 -44.5t-61.5 -17.5q-43 0 -70 17t-42 43.5t-20.5 58.5t-5.5 62z" />
    <glyph glyph-name="onesuperior" unicode="&#xb9;" horiz-adv-x="284" 
d="M87 625l-39 52q1 2 12.5 15t26 27.5t26.5 27.5t15 15l80 -1l2 -338l-87 -3q0 23 -1 51.5t-2.5 58t-2.5 58t-1 51.5z" />
    <glyph glyph-name="twosuperior" unicode="&#xb2;" horiz-adv-x="347" 
d="M60 675q0 20 8.5 39.5t24.5 35.5t38.5 25.5t49.5 9.5q23 0 44.5 -8t38.5 -22t27.5 -33.5t10.5 -43.5q0 -32 -16.5 -57.5t-38.5 -47t-44 -39.5t-33 -34h125v-80h-181l-43 56q0 37 20 66.5t44.5 53.5t44.5 45t20 40q0 14 -19 14q-10 0 -17.5 -10.5t-11.5 -18.5z" />
    <glyph glyph-name="threesuperior" unicode="&#xb3;" horiz-adv-x="321" 
d="M149 422q-13 0 -30 5t-32 14t-25 21.5t-10 28.5l40 40q7 -8 20.5 -18.5t36.5 -10.5q18 0 32.5 10.5t14.5 30.5q0 19 -15.5 23t-29.5 4q-8 0 -14.5 -1.5t-14.5 -1.5l3 76q6 1 16 5t19.5 9.5t16 13t6.5 15.5q0 17 -19 17q-17 0 -30.5 -6.5t-27.5 -15.5l-43 35q0 15 9 27
t23.5 21t32.5 14t36 5q21 0 40.5 -6.5t35.5 -18t25.5 -28.5t9.5 -38q0 -10 -5 -20.5t-12 -20.5t-15 -17.5t-14 -11.5q8 -7 17.5 -15t17.5 -18t13.5 -21.5t5.5 -24.5q0 -26 -11 -48.5t-30 -38.5t-43 -25t-50 -9z" />
    <glyph glyph-name="fraction" unicode="&#x2044;" horiz-adv-x="130" 
d="M-190 -15l284 594q10 20 20.5 44.5t21.5 50t22 50t22 43.5l134 3q-3 -3 -25.5 -45t-56 -109t-75 -150.5t-84 -170.5t-81.5 -169.5t-68 -146.5z" />
    <glyph glyph-name="onequarter" unicode="&#xbc;" horiz-adv-x="775" 
d="M417 579q10 20 20.5 44.5t21.5 50t22 50t22 43.5l134 3q-3 -3 -25.5 -45t-56 -109t-75 -150.5t-84 -170.5t-81.5 -169.5t-68 -146.5l-114 6zM414 93l148 238l77 -12q0 -18 -1 -39.5t-1.5 -44t-1.5 -44.5t-1 -40l-7 -168l-85 5l2 68h-93zM85 679q1 2 12.5 15t26 27.5
t26.5 27.5t15 15l80 -1l2 -338l-87 -3q0 23 -1 51.5t-2.5 58t-2.5 58t-1 51.5l-29 -14zM544 174q-1 -2 -5 -9t-9.5 -15.5t-10 -16.5t-7.5 -13h32v54z" />
    <glyph glyph-name="onehalf" unicode="&#xbd;" horiz-adv-x="743" 
d="M121 -15l284 594q10 20 20.5 44.5t21.5 50t22 50t22 43.5l134 3q-3 -3 -25.5 -45t-56 -109t-75 -150.5t-84 -170.5t-81.5 -169.5t-68 -146.5zM425 240q0 20 8.5 39.5t24.5 35.5t38.5 25.5t49.5 9.5q23 0 44.5 -8t38.5 -22t27.5 -33.5t10.5 -43.5q0 -32 -16.5 -57.5
t-38.5 -47t-44 -39.5t-33 -34h125v-80h-181l-43 56q0 37 20 66.5t44.5 53.5t44.5 45t20 40q0 14 -19 14q-10 0 -17.5 -10.5t-11.5 -18.5zM73 679q1 2 12.5 15t26 27.5t26.5 27.5t15 15l80 -1l2 -338l-87 -3q0 23 -1 51.5t-2.5 58t-2.5 58t-1 51.5l-29 -14z" />
    <glyph glyph-name="threequarters" unicode="&#xbe;" horiz-adv-x="734" 
d="M119 -15l284 594q10 20 20.5 44.5t21.5 50t22 50t22 43.5l134 3q-3 -3 -25.5 -45t-56 -109t-75 -150.5t-84 -170.5t-81.5 -169.5t-68 -146.5zM96 536q7 -8 20.5 -18.5t36.5 -10.5q18 0 32.5 10.5t14.5 30.5q0 19 -15.5 23t-29.5 4q-8 0 -14.5 -1.5t-14.5 -1.5l3 76
q6 1 16 5t19.5 9.5t16 13t6.5 15.5q0 17 -19 17q-17 0 -30.5 -6.5t-27.5 -15.5l-43 35q0 15 9 27t23.5 21t32.5 14t36 5q21 0 40.5 -6.5t35.5 -18t25.5 -28.5t9.5 -38q0 -10 -5 -20.5t-12 -20.5t-15 -17.5t-14 -11.5q8 -7 17.5 -15t17.5 -18t13.5 -21.5t5.5 -24.5
q0 -26 -11 -48.5t-30 -38.5t-43 -25t-50 -9q-13 0 -30 5t-32 14t-25 21.5t-10 28.5zM548 331l77 -12q0 -18 -1 -39.5t-1.5 -44t-1.5 -44.5t-1 -40l-7 -168l-85 5l2 68h-93l-37 37zM530 174q-1 -2 -5 -9t-9.5 -15.5t-10 -16.5t-7.5 -13h32v54z" />
    <glyph glyph-name="perthousand" unicode="&#x2030;" horiz-adv-x="1224" 
d="M472 178q0 39 9.5 80t30.5 74.5t54.5 54.5t81.5 21q46 0 76.5 -19t48.5 -49.5t25.5 -69t7.5 -77.5q0 -40 -8 -79t-27 -69.5t-50.5 -49t-79.5 -18.5q-46 0 -78 16.5t-52 44.5t-29.5 64t-9.5 76zM842 178q0 39 9.5 80t30.5 74.5t54.5 54.5t81.5 21q46 0 76.5 -19
t48.5 -49.5t25.5 -69t7.5 -77.5q0 -40 -8 -79t-27 -69.5t-50.5 -49t-79.5 -18.5q-46 0 -78 16.5t-52 44.5t-29.5 64t-9.5 76zM14 560q0 39 8.5 79t28.5 72t53 52t81 20q46 0 76.5 -19t48.5 -49.5t25.5 -69t7.5 -77.5q0 -40 -8 -79t-27 -69.5t-50.5 -49t-79.5 -18.5
q-46 0 -77 17.5t-50.5 46.5t-28 66.5t-8.5 77.5zM445 579q10 20 20.5 44.5t21.5 50t22 50t22 43.5l134 3q-3 -3 -25.5 -45t-56 -109t-75 -150.5t-84 -170.5t-81.5 -169.5t-68 -146.5l-114 6zM1018 323q-23 0 -36.5 -16.5t-20.5 -40.5t-9 -49.5t-2 -43.5q0 -21 2.5 -41
t9 -35.5t18.5 -25t31 -9.5q27 0 43 12.5t24.5 32t10.5 42.5t2 44q0 19 -2 42t-9.5 42.5t-22 32.5t-39.5 13zM580 173q0 -21 2.5 -41t9 -35.5t18.5 -25t31 -9.5q27 0 43 12.5t24.5 32t10.5 42.5t2 44q0 19 -2 42t-9.5 42.5t-22 32.5t-39.5 13q-23 0 -36.5 -16.5t-20.5 -40.5
t-9 -49.5t-2 -43.5zM126 555q0 -20 3 -41t10.5 -38t21 -28t33.5 -11q21 0 34 12.5t19.5 32t8.5 42.5t2 44q0 19 -2 42t-9.5 42.5t-22 32.5t-39.5 13q-17 0 -28.5 -15t-18 -37t-9.5 -46.5t-3 -44.5z" />
    <glyph glyph-name="mu" unicode="&#xb5;" horiz-adv-x="512" 
d="M24 -51l17 407q0 20 0.5 60t1 80.5t2 72t3.5 35.5l146 -2q0 -26 -0.5 -55t-1.5 -57.5t-1.5 -54t-0.5 -45.5q0 -18 -0.5 -47.5t0.5 -63t4 -67.5t9.5 -61.5t17.5 -45t28 -17.5q19 0 32 21t22 53.5t14.5 72.5t8.5 78.5t4 70t1 48.5v24t0.5 38l1 42t1.5 37l-1 31l127 1
l-17 -481q0 -30 0.5 -61t0.5 -61l-88 -3l-3 79q-25 -38 -59.5 -61.5t-82.5 -23.5q-50 0 -84 28l-18 -69z" />
    <glyph glyph-name="paragraph" unicode="&#xb6;" horiz-adv-x="703" 
d="M29 521q0 76 31 129t81 86t114.5 48t130.5 15q20 0 54 -1.5t70 -5.5t68 -10.5t48 -16.5l21 -82q5 -179 6.5 -355t1.5 -355l-141 -21q-4 11 -4.5 32.5t-0.5 33.5q0 165 -1.5 327t-7.5 327q-11 2 -20.5 2.5t-20.5 2.5q2 -27 2 -50t1 -35q4 -155 5 -309.5t1 -309.5l-131 -21
q-4 11 -4.5 32.5t-0.5 33.5q0 20 0.5 40t0.5 40v127q-61 6 -116 27.5t-97 59t-66.5 90t-24.5 119.5z" />
    <glyph glyph-name="section" unicode="&#xa7;" horiz-adv-x="520" 
d="M266 -63q-46 0 -89.5 11.5t-76.5 35t-53 59t-20 83.5l110 25q3 -31 9 -52.5t20 -34.5t38 -18.5t62 -5.5q43 0 71 20t28 52q0 30 -24.5 45.5t-60.5 25t-79 18t-79 25t-60.5 45.5t-24.5 80q0 28 7.5 46.5t19 31.5t25.5 23t27 22q-16 8 -32.5 18.5t-29.5 24.5t-21 31.5
t-8 39.5q0 42 22 73t56 52t76.5 31.5t82.5 10.5q36 0 75 -8.5t70.5 -27t52 -47t20.5 -67.5l-78 -29q-13 14 -27 28t-30.5 24.5t-37.5 17t-48 6.5q-35 0 -61.5 -14t-26.5 -50q0 -19 24 -29.5t60 -19.5l78 -19.5t78 -30.5t60 -53t24 -86q0 -38 -14 -66t-38 -48q26 -24 39 -51
t13 -63q0 -44 -19.5 -78.5t-51.5 -58t-73 -36t-85 -12.5zM372 351q0 31 -26 47.5t-72 27.5q-17 0 -35.5 -2.5t-33.5 -9t-24.5 -17.5t-9.5 -27q0 -21 15 -34.5t35 -22t39.5 -12.5t29.5 -6h19q32 2 47.5 13t15.5 43z" />
    <glyph glyph-name="dagger" unicode="&#x2020;" horiz-adv-x="440" 
d="M279 625q8 1 15 1h15q25 1 49.5 1.5t49.5 0.5l19 -112q-7 -3 -24.5 -4t-39 -2t-43.5 -1h-39q3 -151 6.5 -300.5t3.5 -300.5l-120 5q-2 17 -1.5 42.5t0.5 43.5l-3 201q-2 76 -3.5 152t-3.5 154q-32 -1 -64.5 -1h-64.5l-8 115q34 0 67.5 0.5t67.5 1.5q-1 48 -1.5 95
t-0.5 95l120 -7q2 -19 1.5 -42.5t-0.5 -43.5q0 -23 0.5 -46.5t1.5 -47.5z" />
    <glyph glyph-name="daggerdbl" unicode="&#x2021;" horiz-adv-x="401" 
d="M23 620q34 0 67.5 0.5t67.5 1.5q-1 48 -1.5 95t-0.5 95l120 -7q2 -19 1.5 -42.5t-0.5 -43.5q0 -23 0.5 -46.5t1.5 -47.5q8 1 15 1h15q25 1 49.5 1.5t49.5 0.5l19 -112q-7 -3 -24.5 -4t-39 -2t-43.5 -1h-39q2 -80 3.5 -159t3.5 -158h21q25 1 49.5 1.5t49.5 0.5l19 -112
q-6 -2 -22 -3.5t-36 -2t-41 -1t-38 -0.5q1 -42 1 -83.5v-83.5l-120 5q-2 17 -1.5 42.5t0.5 43.5l-1 73q-35 -1 -69 -1h-69l-8 115q36 0 72 0.5t72 1.5v12q-2 76 -3.5 152t-3.5 154q-32 -1 -64.5 -1h-64.5z" />
    <glyph glyph-name="asciitilde" unicode="~" horiz-adv-x="572" 
d="M193 300q-16 0 -25 -12.5t-18 -26.5l-107 1q0 31 14.5 61t37.5 54t51.5 38.5t57.5 14.5q27 0 53 -11.5t51 -25.5t48 -25.5t43 -11.5q14 0 22 5.5t12.5 14t7 19t4.5 19.5l117 -9q0 -30 -13.5 -59t-36.5 -52t-53 -37.5t-63 -14.5q-27 0 -57 9t-58 20t-51 20t-37 9z" />
    <glyph glyph-name="guilsinglleft" unicode="&#x2039;" horiz-adv-x="312" 
d="M277 242l-37 -92l-201 145l-1 111l202 141l36 -78l-152 -112z" />
    <glyph glyph-name="guilsinglright" unicode="&#x203a;" horiz-adv-x="310" 
d="M38 455l37 92l201 -145l1 -111l-202 -141l-36 78l152 112z" />
    <glyph glyph-name="guillemotleft" unicode="&#xab;" horiz-adv-x="509" 
d="M487 242l-37 -92l-201 145l-1 111l202 141l36 -78l-152 -112zM277 242l-37 -92l-201 145l-1 111l202 141l36 -78l-152 -112z" />
    <glyph glyph-name="guillemotright" unicode="&#xbb;" horiz-adv-x="509" 
d="M38 455l37 92l201 -145l1 -111l-202 -141l-36 78l152 112zM248 455l37 92l201 -145l1 -111l-202 -141l-36 78l152 112z" />
    <glyph glyph-name="A" unicode="A" 
d="M0 -11l152 751l252 -3l137 -744h-124l-37 199l-195 -12l-46 -193zM358 310l-63 336l-81 -343z" />
    <glyph glyph-name="B" unicode="B" horiz-adv-x="507" 
d="M224 750q50 0 100 -6.5t91 -25.5t66.5 -54t25.5 -92q0 -39 -12 -71t-30.5 -57.5t-41.5 -45.5t-44 -35q22 -9 41.5 -23.5t34.5 -35.5t24 -48.5t9 -62.5q0 -56 -22.5 -92.5t-61.5 -58.5t-91.5 -31.5t-113.5 -11.5v-10l-148 4l-11 599v18q-5 -1 -9 -1h-8l-8 135q2 0 29.5 1
t62.5 2t68.5 2t48.5 1zM199 303q-1 -41 -1 -81.5v-81.5v-53q37 0 67 9t51.5 25.5t33.5 39t12 48.5q0 33 -16 52t-40.5 28.5t-53 11.5t-53.5 2zM370 554q0 22 -13.5 35t-36 19.5t-52.5 8t-62 1.5q0 -4 -0.5 -8t-0.5 -8q-2 -54 -3 -103.5t-2 -103.5q31 12 61.5 29.5t54.5 38.5
t39 44t15 47z" />
    <glyph glyph-name="C" unicode="C" horiz-adv-x="549" 
d="M277 756q62 0 109.5 -21.5t79.5 -57t46 -82t8 -97.5l-113 -25q1 23 -4.5 51t-18 53t-34 42t-52.5 17q-39 0 -63 -27t-37.5 -68.5t-18.5 -89.5t-5 -90q0 -128 31.5 -192.5t88.5 -64.5q33 0 57 20t39 49t22 61t7 56l120 -16q0 -60 -17 -112.5t-48.5 -92t-75.5 -62.5
t-98 -23q-52 0 -104 23.5t-93 73t-67 125t-26 180.5q0 67 13 133.5t43.5 119t82 85t128.5 32.5z" />
    <glyph glyph-name="D" unicode="D" horiz-adv-x="562" 
d="M10 740q15 3 45.5 4.5t63 2t59.5 1t36 0.5q68 0 126.5 -14t101.5 -51.5t68 -102.5t25 -168q0 -92 -21 -169.5t-63 -133t-105 -86.5t-147 -31v-10l-153 -3q0 72 -2 151t-4 159.5t-3 159.5t1 151v12l-17 -1zM203 624v-14q-5 -131 -5.5 -259t-0.5 -259h13q51 0 87.5 23.5
t60.5 62t35 87.5t11 101q0 37 -7 82t-26.5 84.5t-54.5 66t-91 26.5q-4 0 -7.5 -0.5t-7.5 -0.5h-7z" />
    <glyph glyph-name="E" unicode="E" horiz-adv-x="530" 
d="M327 315q-6 0 -16 -0.5t-21 -1t-21 -0.5h-15q-8 0 -20 -9t-23.5 -24t-19.5 -35.5t-8 -43.5q0 -22 8 -40t21.5 -31t31.5 -20t37 -7q29 0 52.5 14.5t41 38.5t28.5 54.5t15 61.5l112 -26q0 -46 -16.5 -93t-50 -85t-83.5 -61.5t-117 -23.5q-42 0 -85 11t-77.5 36t-56.5 64
t-22 96q0 36 9 64t23 49t31.5 36.5t35.5 26.5q-21 10 -41 26.5t-35.5 38.5t-25 50t-9.5 60q0 42 17 81t50 69t81 48t111 18q52 0 95.5 -13.5t75 -40.5t49 -67.5t17.5 -94.5l-103 -34q-2 28 -10.5 53.5t-23 45t-35.5 31.5t-49 12q-27 0 -48 -10.5t-36 -26.5t-23 -35.5
t-8 -37.5t8 -36.5t21.5 -34t32 -25t39.5 -9.5q9 0 22 -0.5t23 -1.5z" />
    <glyph glyph-name="F" unicode="F" horiz-adv-x="469" 
d="M482 743l-26 -144q-5 2 -28.5 3t-58 1.5t-76 1t-83.5 0.5v-161l186 4l-2 -120l-186 -8q-1 -45 -1 -90v-90q0 -19 0.5 -37.5t0.5 -37.5v-16t-0.5 -21t-1.5 -21t-3 -15l-145 -2q0 155 -4.5 307.5t-5.5 307.5h-23l-3 137z" />
    <glyph glyph-name="G" unicode="G" horiz-adv-x="560" 
d="M10 371q0 78 15.5 147.5t47.5 122.5t81 84t117 31q62 0 107.5 -24.5t76 -61t46 -79t16.5 -78.5l-134 -40q0 31 -6.5 59t-18 49.5t-28.5 34.5t-38 13q-30 0 -52.5 -26t-37 -66.5t-21.5 -90.5t-7 -98q0 -53 8 -97.5t24 -76.5t38.5 -50t50.5 -18q26 0 47.5 14.5t36.5 37.5
t22.5 52t4.5 57q-54 -2 -93.5 -4.5t-58.5 -2.5l10 127q67 0 137.5 -1.5t137.5 -1.5l4 -117h-29q-1 -65 -17.5 -117t-46 -88.5t-71 -56t-92.5 -19.5q-53 0 -103 22.5t-88.5 69.5t-62 119.5t-23.5 173.5z" />
    <glyph glyph-name="H" unicode="H" horiz-adv-x="560" 
d="M38 748l170 -4q0 -13 -0.5 -30.5t-1 -36.5t-1.5 -36.5t-1 -30.5q-2 -46 -2.5 -101.5t-2.5 -101.5l158 16q0 19 0.5 42t1 46.5t1 46.5t0.5 42v31v45t0.5 43.5t3.5 26.5l163 -3l-30 -753l-144 -2q0 75 0.5 154.5t1.5 158.5l-157 -14q0 -42 -0.5 -73.5t-0.5 -73.5v-32.5
t-0.5 -45t-1 -45t-2.5 -31.5h-147z" />
    <glyph glyph-name="I" unicode="I" horiz-adv-x="227" 
d="M37 -15v48t-0.5 90t-0.5 117.5v130.5v130v115.5v86t1 43.5l162 -5q-3 -143 -10.5 -296.5t-7.5 -304.5q0 -19 0.5 -37.5t0.5 -37.5v-16.5t-0.5 -21.5t-1.5 -21t-3 -15z" />
    <glyph glyph-name="J" unicode="J" horiz-adv-x="451" 
d="M145 203q1 -18 3.5 -36t9 -33t17.5 -24.5t28 -9.5q22 0 36.5 15.5t23 38.5t11.5 51t3 52l-8 373q-44 -2 -88.5 -3t-75.5 -1q-33 0 -43 2l-3 122q33 0 83 -1t103.5 -2t103.5 -2t83 -1l-3 -10l-13 -401q-1 -34 -3.5 -74t-10 -79.5t-20.5 -77t-34 -66t-52.5 -45.5t-74.5 -17
q-44 0 -81.5 18t-64.5 46.5t-42 65t-15 73.5z" />
    <glyph glyph-name="K" unicode="K" horiz-adv-x="497" 
d="M190 744v-30.5t-0.5 -36.5t-1 -36.5t-0.5 -30.5q-1 -25 -1.5 -49t-1.5 -49l183 246l118 -100l-271 -307l267 -271l-114 -103l-187 225v-62q0 -19 0.5 -37.5t0.5 -37.5v-17.5t-0.5 -24t-1.5 -23.5t-3 -16l-138 -2l-5 766z" />
    <glyph glyph-name="L" unicode="L" horiz-adv-x="444" 
d="M424 107v-122q-8 0 -38 -0.5t-70.5 -1.5t-86 -1.5t-86.5 -1.5t-71.5 -1.5t-40.5 -0.5l-4 101l39 3l-10 662l178 -5q0 -13 -0.5 -30t-1 -34.5t-1.5 -34.5t-1 -30q-4 -130 -5.5 -258.5t-1.5 -258.5z" />
    <glyph glyph-name="M" unicode="M" horiz-adv-x="716" 
d="M229 740l131 -349l142 347l183 -5l-29 -746h-135v451l-105 -338l-91 -17l-121 347l-24 -443h-127l-8 752z" />
    <glyph glyph-name="N" unicode="N" horiz-adv-x="567" 
d="M192 740l192 -400l-4 400l154 3l-22 -756l-134 -3l-195 383l-17 -380h-124l-8 752z" />
    <glyph glyph-name="O" unicode="O" horiz-adv-x="599" 
d="M296 -16q-69 0 -122 28t-89.5 78.5t-55.5 121.5t-19 156q0 78 17 149t53 124.5t92.5 85t135.5 31.5q69 0 119.5 -23t73.5 -59l1 1q18 -22 34 -48.5t28 -61t18.5 -78t6.5 -98.5q0 -92 -20 -167t-57.5 -128.5t-92 -82.5t-123.5 -29zM172 356q0 -128 38 -195.5t100 -67.5
q35 0 64 21.5t49.5 60.5t31.5 92t11 116q0 69 -13.5 119.5t-38.5 92.5l-18 -7q-2 25 -12 39t-22 21t-24 8.5t-17 1.5q-34 0 -61.5 -23t-47 -63.5t-30 -95.5t-10.5 -120z" />
    <glyph glyph-name="P" unicode="P" horiz-adv-x="510" 
d="M8 744q2 0 29.5 1t62.5 2t68.5 2t48.5 1q50 0 100 -7t91 -29.5t66.5 -64.5t25.5 -113q0 -63 -21.5 -114t-61.5 -90.5t-97.5 -68t-128.5 -47.5v-76v-53l1 -88v-10l-148 4l-11 599v18q-5 -1 -9 -1h-8zM192 323q41 15 73 39.5t53.5 52.5t33 58.5t11.5 57.5q0 31 -13.5 48.5
t-36 26t-52.5 10.5t-62 2q0 -4 -0.5 -8t-0.5 -8q-3 -70 -4 -139.5t-2 -139.5z" />
    <glyph glyph-name="Q" unicode="Q" horiz-adv-x="618" 
d="M14 366q0 79 17 150t53 125t92.5 85.5t135.5 31.5q69 0 119.5 -23t73.5 -59l1 1q19 -22 35 -49t27.5 -61t18 -77t6.5 -96q0 -114 -29.5 -199.5t-85.5 -138.5q27 -45 48.5 -80t27.5 -45l-86 -54l-83 123q-44 -14 -90 -14q-69 0 -121.5 27.5t-88 77.5t-53.5 120t-18 155z
M176 356q0 -35 5 -80.5t20.5 -86t44 -68t75.5 -27.5l-76 112l106 61q5 -8 23 -38.5t43 -70.5q26 38 39.5 96t13.5 129q0 69 -13.5 119.5t-38.5 92.5l-18 -7q-2 25 -12 39t-22 21t-24 8.5t-17 1.5q-34 0 -61.5 -23t-47 -63.5t-30 -95.5t-10.5 -120z" />
    <glyph glyph-name="R" unicode="R" horiz-adv-x="528" 
d="M11 744q2 0 29.5 1t62.5 2t68.5 2t48.5 1q50 0 100 -6.5t91 -27.5t66.5 -60.5t25.5 -104.5q0 -94 -55 -160.5t-154 -108.5l239 -206l-117 -90l-222 242v-88v-53l1 -88v-10l-148 4l-11 609v18q-5 -1 -9 -1h-8zM196 355q41 15 72.5 38t53.5 48.5t33 52t11 49.5
q0 26 -13.5 42.5t-36 26t-52.5 13t-62 3.5q0 -4 -0.5 -8t-0.5 -8q-2 -63 -3.5 -128t-1.5 -129z" />
    <glyph glyph-name="S" unicode="S" horiz-adv-x="534" 
d="M293 756q56 0 99 -17t71.5 -48t43 -75.5t14.5 -98.5l-121 -27q0 24 -7.5 49.5t-22 46.5t-35.5 34.5t-48 13.5q-21 0 -38 -8.5t-28.5 -21.5t-17.5 -28.5t-6 -30.5q0 -31 24.5 -54t61 -44t79.5 -43t79.5 -52t61 -70t24.5 -97q0 -42 -15 -79.5t-46 -65.5t-77.5 -44
t-108.5 -16q-66 0 -113.5 18t-78.5 51t-46 79t-15 101l132 25q0 -27 5.5 -54.5t19 -50t36.5 -36.5t59 -14q27 0 43.5 8t25.5 20t11.5 25.5t2.5 24.5q0 41 -24.5 67.5t-60.5 48t-79 42t-79 47.5t-60.5 66t-24.5 97q0 59 24.5 99t63 65t84 36t87.5 11z" />
    <glyph glyph-name="T" unicode="T" horiz-adv-x="464" 
d="M448 744v-124q-9 0 -44 0.5t-83 2.5v-13q-4 -118 -5.5 -235t-1.5 -235q0 -38 0.5 -77t0.5 -77l-156 -3l-10 644q-54 2 -93.5 2.5t-50.5 0.5l-4 111z" />
    <glyph glyph-name="U" unicode="U" horiz-adv-x="524" 
d="M222 -12q-51 0 -86.5 24.5t-58 62t-35 84t-18 90t-6.5 79t-1 52.5q0 30 0.5 67.5t0.5 76.5t1 77t2 68.5t2.5 50.5t2.5 24l158 -3q0 -33 -1 -69.5t-1.5 -72t-1.5 -68t-1 -56.5q0 -23 -0.5 -59t1 -77t5 -82t12 -74t22 -54t34.5 -21q23 0 40 25.5t28 65t18 88t11 95t5 85.5
t1 60v31.5t0.5 49t1.5 54t2 46.5l-1 36l146 1l-21 -605q0 -38 0.5 -77t0.5 -77l-98 -3l-4 103q-28 -45 -67.5 -71.5t-93.5 -26.5z" />
    <glyph glyph-name="V" unicode="V" horiz-adv-x="555" 
d="M559 743l-175 -757l-225 -3l-159 759l172 2l119 -626l140 625h128z" />
    <glyph glyph-name="W" unicode="W" horiz-adv-x="719" 
d="M172 744l59 -626l79 485h129l74 -485l74 626l132 -2l-134 -759l-165 3l-45 312l-51 -312l-205 -3l-119 759z" />
    <glyph glyph-name="X" unicode="X" horiz-adv-x="545" 
d="M185 342l-178 400l182 2l99 -224l109 223h148l-200 -352l179 -405l-178 -3l-103 231l-110 -228l-145 -3z" />
    <glyph glyph-name="Y" unicode="Y" horiz-adv-x="544" 
d="M0 742l182 2l107 -278l112 277h148l-199 -405l-3 -25l1 -2h-1l-31 -322l-137 -3l13 312z" />
    <glyph glyph-name="Z" unicode="Z" horiz-adv-x="478" 
d="M20 744l447 -4v-106l-276 -552l247 9v-117h-39h-73t-89.5 -0.5t-89.5 -0.5h-73.5h-41.5l-1 103h1l274 556q-45 -1 -91.5 -1.5t-87 -1t-69 -1t-37.5 -0.5z" />
    <glyph glyph-name="breve" unicode="&#x2d8;" horiz-adv-x="350" 
d="M164 634q-25 0 -50 13t-44 33.5t-31 46.5t-12 52l83 9q8 -19 19 -38t36 -19q15 0 25.5 7t17.5 18.5t11 25t6 25.5l69 -37q0 -27 -10 -52t-27.5 -43.5t-41.5 -29.5t-51 -11z" />
    <glyph glyph-name="dotaccent" unicode="&#x2d9;" horiz-adv-x="183" 
d="M42 718q0 23 13.5 36t36.5 13t36 -13t13 -36t-13 -36.5t-36 -13.5t-36.5 13.5t-13.5 36.5z" />
    <glyph glyph-name="ring" unicode="&#x2da;" horiz-adv-x="300" 
d="M107 719q0 -23 15.5 -31.5t33.5 -8.5q13 0 23.5 8t10.5 37q0 19 -7 31t-30 12q-26 0 -36 -15.5t-10 -32.5zM27 719q0 58 36 90t92 32q59 0 87 -33t28 -85q0 -60 -33.5 -92t-90.5 -32q-24 0 -46 8t-38 23t-25.5 37.5t-9.5 51.5z" />
    <glyph glyph-name="hungarumlaut" unicode="&#x2dd;" horiz-adv-x="355" 
d="M165 627l90 167l70 -57l-100 -147q-10 -5 -20 -5l-40 40v2zM33 632l90 167l70 -57l-100 -147q-10 -5 -20 -5l-40 40v2z" />
    <glyph glyph-name="ogonek" unicode="&#x2db;" horiz-adv-x="245" 
d="M42 -88q0 31 11.5 57t29.5 44.5t41 29t46 10.5l24 -58q-16 -9 -27.5 -15.5t-19.5 -13t-12 -15.5t-4 -23q0 -26 12 -39.5t27 -16.5l18 -91q-27 0 -53.5 10t-47 28t-33 42t-12.5 51z" />
    <glyph glyph-name="caron" unicode="&#x2c7;" horiz-adv-x="407" 
d="M58 742l70 57l49 -91l49 91l70 -57l-100 -147q-8 -5 -20 -5q-10 0 -18 5z" />
    <glyph glyph-name="grave" unicode="`" horiz-adv-x="239" 
d="M160 579q-10 0 -20 5l-100 147l70 57l90 -167v-2z" />
    <glyph glyph-name="circumflex" unicode="&#x2c6;" horiz-adv-x="382" 
d="M158 794q8 5 18 5q12 0 20 -5l100 -147l-70 -57l-49 91l-49 -91l-70 57z" />
    <glyph glyph-name="dieresis" unicode="&#xa8;" horiz-adv-x="296" 
d="M161 709q0 23 13.5 36t36.5 13t36 -13t13 -36t-13 -36.5t-36 -13.5t-36.5 13.5t-13.5 36.5zM41 709q0 23 13.5 36t36.5 13t36 -13t13 -36t-13 -36.5t-36 -13.5t-36.5 13.5t-13.5 36.5z" />
    <glyph glyph-name="acute" unicode="&#xb4;" horiz-adv-x="235" 
d="M33 632l90 167l70 -57l-100 -147q-10 -5 -20 -5l-40 40v2z" />
    <glyph glyph-name="cedilla" unicode="&#xb8;" horiz-adv-x="225" 
d="M217 -124q0 -27 -19.5 -47.5t-48 -34t-61 -20t-57.5 -6.5l5 90q5 0 20 0.5t31 2t28.5 5.5t12.5 10l-57 79q0 5 3.5 17.5t8.5 27t10 26.5t8 15l78 -29l-10 -39z" />
    <glyph glyph-name="a" unicode="a" horiz-adv-x="485" 
d="M5 1l128 613l236 -2l61 -341l30 1l2 -105l-13 -1l30 -166l-125 1l-30 159l-153 -8l-35 -153zM304 266l-49 261l-60 -266z" />
    <glyph glyph-name="b" unicode="b" horiz-adv-x="447" 
d="M3 328q5 1 9 1t9 1l-3 150v26v14t-0.5 26.5t-1.5 63.5q2 0 24.5 1t52 1.5t57.5 1.5t41 1q42 0 83.5 -5.5t74 -22t53 -47t20.5 -80.5q0 -33 -8.5 -56.5t-22.5 -41t-32 -31t-36 -26.5q19 -8 38 -18.5t34.5 -26.5t25 -38t9.5 -54q0 -46 -21 -78t-57 -52t-83.5 -29.5
t-99.5 -10.5l-141 1l-5 242q-8 -1 -12 -1h-6zM195 254q-2 0 -8.5 -0.5t-17.5 -1.5q-1 -34 -1 -68.5v-68.5v-46q23 0 48 5t45.5 17t34 31t13.5 47q0 38 -30.5 61.5t-83.5 23.5zM170 357q25 7 46.5 16.5t38 21.5t26 27.5t9.5 33.5q0 16 -7.5 25t-22 13.5t-36 6t-49.5 1.5
q0 -3 -0.5 -6.5t-0.5 -6.5q-2 -39 -2.5 -68t-1.5 -64z" />
    <glyph glyph-name="c" unicode="c" horiz-adv-x="467" 
d="M244 620q57 0 97 -17.5t66 -46t37.5 -66t11.5 -77.5l-109 -12q0 18 -4.5 39.5t-15 40t-27.5 30.5t-43 12q-34 0 -55.5 -22t-33 -55.5t-15.5 -72.5t-4 -73q0 -103 25.5 -156t71.5 -53q27 0 45 16.5t28.5 40.5t14.5 50.5t4 45.5l121 -17q0 -48 -16 -90.5t-44.5 -74t-67 -50
t-83.5 -18.5q-41 0 -84 17.5t-78.5 56.5t-58 101.5t-22.5 151.5q0 60 12.5 114.5t40.5 95.5t73.5 65t112.5 24z" />
    <glyph glyph-name="d" unicode="d" horiz-adv-x="444" 
d="M14 85q3 -1 13 -1l-1 420l-6 106q14 2 41.5 2.5t56.5 0.5h70q51 0 97 -13t80 -45t54 -86t20 -137q0 -74 -17 -135.5t-51 -105t-84.5 -67.5t-117.5 -24h-10q-9 0 -23.5 -1t-31 -1.5l-33 -1t-30.5 -0.5q-21 0 -31 2zM167 95q41 0 70.5 21.5t49 54.5t29 72t9.5 73
q0 18 -3.5 51.5t-17 66t-40.5 57t-74 24.5h-12h-6v-11q-3 -103 -4 -204.5t-1 -204.5z" />
    <glyph glyph-name="e" unicode="e" horiz-adv-x="395" 
d="M15 613l370 1l-21 -126q-4 2 -23 2.5t-46.5 1.5t-61.5 1h-67v-119l150 2l-2 -106l-149 -7q-1 -33 -1 -66.5v-67.5v-12l184 1l-15 -125q-4 1 -22.5 2t-45 1.5t-58 0.5h-61.5h-108v1h-13q0 123 -3.5 247.5t-4.5 247.5z" />
    <glyph glyph-name="f" unicode="f" horiz-adv-x="384" 
d="M375 614l-20 -126q-4 2 -22 2.5t-44.5 1.5t-58.5 1h-64v-123v-17l160 3l-2 -106l-159 -7q-1 -29 -1 -57v-57q0 -15 0.5 -30t0.5 -31v-14t-0.5 -20.5t-1 -20t-2.5 -13.5l-136 -2q0 123 -3.5 247.5t-4.5 247.5l-2 120z" />
    <glyph glyph-name="g" unicode="g" horiz-adv-x="469" 
d="M5 295q0 69 15.5 128.5t45.5 104t73 70t98 25.5q50 0 87.5 -20t62 -49.5t37.5 -64t14 -64.5l-125 -39q0 25 -2.5 47.5t-9.5 39.5t-18.5 27t-28.5 10q-25 0 -43 -19.5t-30 -51t-17.5 -70.5t-5.5 -78q0 -87 25 -137.5t67 -50.5q17 0 35 9t32.5 24t23 35.5t6.5 43.5
q-44 -2 -76 -4t-48 -2l8 113q55 0 112.5 -1t112.5 -1l3 -105h-24q-1 -53 -16 -94t-41 -68.5t-61 -42t-76 -14.5q-40 0 -81.5 15t-76 49.5t-56.5 92t-22 142.5z" />
    <glyph glyph-name="h" unicode="h" horiz-adv-x="472" 
d="M15 611l158 -3q0 -21 -1.5 -51.5t-1.5 -51.5q-2 -37 -2.5 -77.5t-2.5 -77.5l129 13q1 30 1.5 66.5t0.5 67.5v24v34t1 33.5t3 20.5l152 -2l-25 -606l-136 -2q0 61 0.5 125.5t0.5 129.5l-127 -12q0 -34 -0.5 -59.5t-0.5 -59.5v-26.5t-0.5 -36.5t-1 -36.5t-1.5 -25.5h-139z
" />
    <glyph glyph-name="i" unicode="i" horiz-adv-x="203" 
d="M26 -6v52.5t-0.5 94.5t-0.5 115v114t0.5 91.5t0.5 47.5l146 -4q-1 -56 -3.5 -102t-4.5 -90t-4 -91t-2 -106v-59v-13t-0.5 -16.5t-1 -16.5t-1.5 -12zM30 676l153 7l-15 -138h-136z" />
    <glyph glyph-name="j" unicode="j" horiz-adv-x="384" 
d="M223 695l153 7l-15 -138h-136zM221 530h140l-5 -258q-1 -41 -6.5 -91t-24.5 -93.5t-54.5 -73t-95.5 -29.5q-80 0 -124.5 54.5t-44.5 144.5l118 -16q-1 -15 0.5 -29.5t6 -26t13 -19t21.5 -7.5q28 0 44.5 34t15.5 91z" />
    <glyph glyph-name="k" unicode="k" horiz-adv-x="428" 
d="M31 609l145 -4v-24t-0.5 -29t-1 -29t-0.5 -24l-3 -81l165 193l91 -90l-191 -206l203 -223l-87 -106l-183 271v-14v-118v-59v-14t-0.5 -19t-1 -19t-2.5 -13l-130 -1z" />
    <glyph glyph-name="l" unicode="l" horiz-adv-x="367" 
d="M180 608q0 -20 -1.5 -50t-2.5 -51q-3 -103 -4 -206t-1 -206l173 13v-109q-7 0 -30.5 -0.5t-55 -1t-68 -1.5t-68.5 -1.5t-56 -1t-32 -0.5l-3 92h3l-9 527z" />
    <glyph glyph-name="m" unicode="m" horiz-adv-x="589" 
d="M183 608l107 -286l116 284l160 -4l-23 -601h-121v369l-86 -307l-75 -14l-99 315l-19 -363h-115l-6 606z" />
    <glyph glyph-name="n" unicode="n" horiz-adv-x="474" 
d="M164 605l154 -300l-3 300l133 2l-17 -604l-118 -3l-156 288l-14 -285h-109l-6 601z" />
    <glyph glyph-name="o" unicode="o" horiz-adv-x="495" 
d="M237 -6q-49 0 -90 17t-70.5 53t-46 92.5t-16.5 136.5q0 157 63.5 241t182.5 84q37 0 63 -8t43.5 -20.5t28 -29.5t14.5 -35l10 5q29 -35 43.5 -83.5t14.5 -124.5q0 -155 -61 -241.5t-179 -86.5zM157 295q0 -100 27.5 -152.5t78.5 -52.5q53 0 80 62t27 193q0 26 -3.5 58.5
t-20.5 64.5l-13 -7q-6 30 -28 45.5t-45 15.5t-42 -16.5t-32.5 -46t-21 -71.5t-7.5 -93z" />
    <glyph glyph-name="p" unicode="p" horiz-adv-x="438" 
d="M32 601q2 0 24 1.5t49.5 3t54.5 2.5t38 1q39 0 78.5 -5.5t72 -23t52.5 -51t20 -89.5q0 -99 -65 -160t-178 -91v-61q0 -32 0.5 -63.5t0.5 -63.5h-137l-9 484zM179 272q62 24 88 66t26 84q0 49 -29 66t-80 17q0 -3 -0.5 -6.5t-0.5 -6.5q-2 -55 -3 -109.5t-1 -110.5z" />
    <glyph glyph-name="q" unicode="q" horiz-adv-x="503" 
d="M247 -6q-49 0 -90 17t-70.5 53t-46 92.5t-16.5 136.5q0 157 63.5 241t182.5 84q37 0 63 -8t43.5 -20.5t28 -29.5t14.5 -35l10 5q29 -35 43.5 -83.5t14.5 -124.5q0 -184 -84 -268q20 -36 35 -64t20 -36l-81 -43l-59 93q-31 -10 -71 -10zM167 295q0 -94 25 -146.5t71 -57.5
l-51 79l98 54q3 -6 14.5 -26.5t26.5 -49.5q29 64 29 197q0 26 -3.5 58.5t-20.5 64.5l-13 -7q-6 30 -28 45.5t-45 15.5t-42 -16.5t-32.5 -46t-21 -71.5t-7.5 -93z" />
    <glyph glyph-name="r" unicode="r" horiz-adv-x="448" 
d="M32 601q2 0 24 1.5t49.5 3t54.5 2.5t38 1q39 0 80.5 -5.5t75.5 -23t56 -51t22 -89.5q0 -76 -42 -123t-114 -77l175 -192l-108 -57l-151 221q-4 -1 -7 -1.5t-7 -1.5v-81q0 -32 0.5 -63.5t0.5 -63.5h-137l-9 484zM179 293q64 22 94 54.5t30 75.5q0 48 -34 65t-85 17
q0 -3 -0.5 -6.5t-0.5 -6.5q-2 -50 -3 -99t-1 -100z" />
    <glyph glyph-name="s" unicode="s" horiz-adv-x="453" 
d="M255 619q88 0 133.5 -51t45.5 -136l-95 -22q0 18 -6 37.5t-17 36.5t-27 28t-36 11q-18 0 -31.5 -8t-22.5 -20t-13.5 -26t-4.5 -25q0 -24 19 -42.5t47.5 -35t61.5 -34t61.5 -40t47.5 -53.5t19 -74q0 -36 -14 -69.5t-41 -59.5t-66 -42t-89 -16q-51 0 -88.5 17t-61.5 46
t-36 68t-12 82l118 22q0 -21 3 -40.5t11 -35t21 -24.5t34 -9q14 0 27.5 4.5t24.5 13t18 21t7 28.5q0 27 -18.5 45.5t-46.5 34.5t-61 32t-61 38t-46.5 52.5t-18.5 75.5q0 48 21 80.5t53 52.5t69.5 28.5t70.5 8.5z" />
    <glyph glyph-name="t" unicode="t" horiz-adv-x="373" 
d="M367 609v-105q-7 0 -33.5 0.5t-62.5 1.5v-5q-6 -187 -6 -376q0 -30 0.5 -61t0.5 -62l-139 -2l-8 510q-40 1 -69.5 1.5t-37.5 0.5l-3 94z" />
    <glyph glyph-name="u" unicode="u" horiz-adv-x="486" 
d="M199 -7q-56 0 -89.5 33t-51.5 85.5t-23.5 117.5t-5.5 128q0 20 0.5 59.5t1 80t2 72t3.5 35.5l146 -2q0 -26 -0.5 -55t-1.5 -57.5t-1.5 -54t-0.5 -45.5q0 -18 -0.5 -47.5t0.5 -63t4 -67.5t9.5 -61.5t17.5 -45t28 -17.5q19 0 32 21t22 53.5t14.5 72.5t8.5 78.5t4 70t1 48.5
v24t0.5 38l1 42t1.5 37l-1 31l127 1l-17 -481q0 -30 0.5 -61t0.5 -61l-88 -3l-3 79q-25 -38 -59.5 -61.5t-82.5 -23.5z" />
    <glyph glyph-name="v" unicode="v" horiz-adv-x="494" 
d="M494 604l-130 -604l-236 -2l-128 605l141 2l129 -520l108 518z" />
    <glyph glyph-name="w" unicode="w" horiz-adv-x="559" 
d="M144 607l46 -497l51 407h100l57 -407l48 495l113 -1l-105 -599l-118 2l-45 273l-29 -273l-170 -2l-92 600z" />
    <glyph glyph-name="x" unicode="x" horiz-adv-x="450" 
d="M162 607l83 -172l77 171h128l-155 -274l159 -329l-158 -3l-87 178l-77 -175l-126 -3l154 279l-159 326z" />
    <glyph glyph-name="y" unicode="y" horiz-adv-x="462" 
d="M160 606l79 -215l90 215h131l-159 -300l-28 -303l-127 -3l9 248l-154 357z" />
    <glyph glyph-name="z" unicode="z" horiz-adv-x="398" 
d="M31 604l345 -3v-96l-203 -415l180 6v-95h-30h-56t-69 -0.5t-69.5 -0.5h-57h-31.5l-1 85h1l187 418q-32 -1 -64 -1.5t-59 -1t-46.5 -0.5h-25.5z" />
    <glyph glyph-name="ellipsis" unicode="&#x2026;" horiz-adv-x="642" 
d="M596 126l-15 -138h-115l-2 131zM250 119l132 7l-15 -138h-115zM36 119l132 7l-15 -138h-115z" />
    <glyph glyph-name="periodcentered" unicode="&#xb7;" horiz-adv-x="268" 
d="M68 450l132 7l-15 -138h-115z" />
    <glyph glyph-name="exclamdown" unicode="&#xa1;" horiz-adv-x="225" 
d="M155 -45l-122 1l15 558l121 -8zM167 592l-106 -7l-11 138h115z" />
    <glyph glyph-name="questiondown" unicode="&#xbf;" horiz-adv-x="413" 
d="M212 65q20 0 41 9.5t40 42.5l94 -13q-9 -35 -27 -64.5t-42.5 -50.5t-55.5 -32.5t-66 -11.5q-44 0 -79.5 17.5t-60.5 46t-38.5 65t-13.5 73.5q0 47 19.5 100.5t45.5 106.5t52.5 101t41.5 84l110 -12q-17 -38 -41 -81t-45.5 -89t-36.5 -94.5t-15 -96.5q0 -58 22 -79.5
t55 -21.5zM274 590l-107 -1l-3 107l106 19z" />
    <glyph glyph-name="dotlessi" unicode="&#x131;" horiz-adv-x="203" 
d="M26 -6v52.5t-0.5 94.5t-0.5 115v114t0.5 91.5t0.5 47.5l146 -4q-1 -56 -3.5 -102t-4.5 -90t-4 -91t-2 -106v-59v-13t-0.5 -16.5t-1 -16.5t-1.5 -12z" />
    <glyph glyph-name="Thorn" unicode="&#xde;" horiz-adv-x="510" 
d="M195 610q58 0 113 -6.5t97.5 -28.5t68.5 -64.5t26 -114.5q0 -63 -21.5 -114t-61.5 -90.5t-97.5 -68t-128.5 -47.5l1 -77v-10l-148 4l-7 478q-2 0 -3 -0.5t-3 -0.5q-5 -1 -15 -1l-8 135h8.5t18.5 1l-2 112v29l165 2q2 -4 1 -10t-1 -11q-1 -23 -1.5 -52.5t-1.5 -64.5z
M191 182q41 16 73 40t54 52t33.5 58t11.5 57q0 32 -15 50t-38.5 26.5t-51 10.5t-52.5 2h-13q0 -51 -0.5 -97t-0.5 -78q-1 -30 -1 -60.5v-60.5z" />
    <glyph glyph-name="thorn" unicode="&#xfe;" horiz-adv-x="438" 
d="M181 609q46 0 89 -5t76.5 -22.5t54 -51t20.5 -90.5q0 -99 -65 -160t-178 -91v-61q0 -32 0.5 -63.5t0.5 -63.5h-137l-6 472h-3l-1 128h3l-2 145l151 8q0 -3 -0.5 -6t-0.5 -6q-1 -19 -1.5 -53.5t-0.5 -79.5zM180 489q-1 -66 -1 -124.5v-92.5q62 24 88 66t26 84q0 49 -29 66
t-80 17q0 -3 -0.5 -6.5t-0.5 -6.5v-3h-3z" />
    <glyph glyph-name="germandbls" unicode="&#xdf;" horiz-adv-x="705" 
d="M77 0l9 374h-14.5h-22t-22 0.5t-13.5 1.5l10 109h69q6 66 33.5 113t67.5 76t87.5 42.5t93.5 13.5q37 0 70.5 -10t59 -29t40.5 -46t15 -60q0 -36 -15 -63t-33.5 -50t-33.5 -42.5t-15 -40.5t16.5 -33.5t42 -23t54.5 -22t54.5 -29t42 -45.5t16.5 -71q0 -36 -16.5 -69.5
t-47 -59.5t-73 -42t-95.5 -16q-54 0 -93 17t-64 46t-37 68t-12 82l118 22q0 -21 3.5 -40.5t13 -35t27 -24.5t45.5 -9q38 0 62.5 17.5t24.5 49.5q0 27 -16.5 41.5t-41 24.5t-53.5 18.5t-53.5 24t-41 41t-16.5 69.5q0 39 12 68.5t27 52t27 39t12 28.5q0 14 -15 22t-37 8
q-18 0 -38.5 -6.5t-38.5 -21t-31 -38t-16 -57.5l-3 -485h-145z" />
    <glyph glyph-name="eth" unicode="&#xf0;" horiz-adv-x="529" 
d="M253 -7q-58 0 -102 20.5t-73.5 56.5t-44.5 85.5t-15 106.5q0 111 52 173t145 62q29 0 58.5 -6t52.5 -18q-8 23 -16 45t-19 44l-49 -20l-36 104l34 14q-18 29 -37.5 54.5t-41.5 46.5l123 14q35 -29 65 -68l49 21l34 -110l-21 -8q23 -43 41.5 -89.5t31 -92t19 -88
t6.5 -78.5q0 -64 -20 -114t-54.5 -84.5t-81.5 -52.5t-100 -18zM150 256q0 -32 7 -64t20.5 -57t33.5 -40t47 -15q25 0 45.5 13.5t35 37t22.5 55.5t8 69q0 35 -7.5 80t-22.5 96l6 -65q-8 7 -21.5 13.5t-28 11t-29.5 7t-26 2.5q-24 0 -41 -12t-28 -32t-16 -46t-5 -54z" />
    <glyph glyph-name="Agrave" unicode="&#xc0;" 
d="M0 -11l152 751l252 -3l137 -744h-124l-37 199l-195 -12l-46 -193zM358 310l-63 336l-81 -343zM261 1009l90 -167v-2l-40 -40q-10 0 -20 5l-100 147z" />
    <glyph glyph-name="Aacute" unicode="&#xc1;" 
d="M0 -11l152 751l252 -3l137 -744h-124l-37 199l-195 -12l-46 -193zM358 310l-63 336l-81 -343zM191 851v2l90 167l70 -57l-100 -147q-10 -5 -20 -5z" />
    <glyph glyph-name="Acircumflex" unicode="&#xc2;" 
d="M152 740l252 -3l137 -744h-124l-37 199l-195 -12l-46 -193l-139 2zM252 1015q8 5 20 5q10 0 18 -5l100 -147l-70 -57l-49 91l-49 -91l-70 57zM358 310l-63 336l-81 -343z" />
    <glyph glyph-name="Atilde" unicode="&#xc3;" 
d="M152 740l252 -3l137 -744h-124l-37 199l-195 -12l-46 -193l-139 2zM127 815q0 20 7.5 42t20.5 40t30.5 29.5t36.5 11.5q17 0 30.5 -8.5t24.5 -18.5t20 -18.5t17 -8.5q7 0 11 6t6.5 14t3.5 15.5t1 9.5l79 -11q0 -22 -5.5 -45t-16.5 -42t-29 -31t-43 -12q-21 0 -36.5 8.5
t-26.5 18t-18 18t-13 8.5q-8 0 -15 -14.5t-7 -26.5zM358 310l-63 336l-81 -343z" />
    <glyph glyph-name="Adieresis" unicode="&#xc4;" 
d="M0 -11l152 751l252 -3l137 -744h-124l-37 199l-195 -12l-46 -193zM358 310l-63 336l-81 -343zM331 830q-23 0 -36.5 13.5t-13.5 36.5t13.5 36t36.5 13t36 -13t13 -36t-13 -36.5t-36 -13.5zM211 830q-23 0 -36.5 13.5t-13.5 36.5t13.5 36t36.5 13t36 -13t13 -36t-13 -36.5
t-36 -13.5z" />
    <glyph glyph-name="Aring" unicode="&#xc5;" 
d="M152 740l66 -1q-30 13 -49.5 40.5t-19.5 70.5q0 58 36 90t92 32q59 0 87 -33t28 -85q0 -45 -19 -74.5t-54 -41.5l85 -1l137 -744h-124l-37 199l-195 -12l-46 -193l-139 2zM358 310l-63 336l-81 -343zM275 898q-26 0 -36 -15.5t-10 -32.5q0 -23 15.5 -31.5t33.5 -8.5
q13 0 23.5 8t10.5 37q0 19 -7 31t-30 12z" />
    <glyph glyph-name="AE" unicode="&#xc6;" horiz-adv-x="895" 
d="M152 740l252 -3l13 -72q32 41 86.5 66.5t130.5 25.5q52 0 95.5 -13.5t75 -40.5t49 -67.5t17.5 -94.5l-103 -34q-2 28 -10.5 53.5t-23 45t-35.5 31.5t-49 12q-27 0 -48 -10.5t-36 -26.5t-23 -35.5t-8 -37.5t8 -36.5t21.5 -34t32 -25t39.5 -9.5q9 0 22 -0.5t23 -1.5
l11 -117q-6 0 -16 -0.5t-21 -1t-21 -0.5h-15q-8 0 -20 -9t-23.5 -24t-19.5 -35.5t-8 -43.5q0 -22 8 -40t21.5 -31t31.5 -20t37 -7q29 0 52.5 14.5t41 38.5t28.5 54.5t15 61.5l112 -26q0 -46 -16.5 -93t-50 -85t-83.5 -61.5t-117 -23.5q-45 0 -87 12v-2h-124l-37 199
l-195 -12l-46 -193l-139 2zM358 310l-63 336l-81 -343zM486 366q-4 2 -7.5 4t-7.5 4l3 -16l6 4z" />
    <glyph glyph-name="Ccedilla" unicode="&#xc7;" horiz-adv-x="549" 
d="M10 386q0 67 13 133.5t43.5 119t82 85t128.5 32.5q62 0 109.5 -21.5t79.5 -57t46 -82t8 -97.5l-113 -25q1 23 -4.5 51t-18 53t-34 42t-52.5 17q-39 0 -63 -27t-37.5 -68.5t-18.5 -89.5t-5 -90q0 -128 31.5 -192.5t88.5 -64.5q33 0 57 20t39 49t22 61t7 56l120 -16
q0 -56 -15.5 -106.5t-44 -89.5t-68 -63.5t-88.5 -29.5l-3 -12l48 -97q0 -27 -19.5 -47.5t-48 -34t-61 -20t-57.5 -6.5l5 90q5 0 20 0.5t31 2t28.5 5.5t12.5 10l-57 79q0 11 10 39q-43 13 -83.5 43t-71 78t-49 115.5t-18.5 155.5z" />
    <glyph glyph-name="Eth" unicode="&#xd0;" horiz-adv-x="562" 
d="M0 427l37 5v86t1 82v12l-17 -1l-11 129q15 3 45.5 4.5t63 2t59.5 1t36 0.5q68 0 126.5 -14t101.5 -51.5t68 -102.5t25 -168q0 -92 -21 -169.5t-63 -133t-105 -86.5t-147 -31v-10l-153 -3q0 79 -2.5 166t-4.5 175l-34 -3zM207 452l2 -115l-12 -1q-1 -49 -1 -98v-98
q0 -12 0.5 -24t0.5 -24h13q51 0 87.5 23.5t60.5 62t35 87.5t11 101q0 37 -7 82t-26.5 84.5t-54.5 66t-91 26.5q-4 0 -7.5 -0.5t-7.5 -0.5h-7v-14q-2 -40 -2.5 -79.5t-1.5 -79.5z" />
    <glyph glyph-name="Dcroat" unicode="&#x110;" horiz-adv-x="562" 
d="M0 427l37 5v86t1 82v12l-17 -1l-11 129q15 3 45.5 4.5t63 2t59.5 1t36 0.5q68 0 126.5 -14t101.5 -51.5t68 -102.5t25 -168q0 -92 -21 -169.5t-63 -133t-105 -86.5t-147 -31v-10l-153 -3q0 79 -2.5 166t-4.5 175l-34 -3zM207 452l2 -115l-12 -1q-1 -49 -1 -98v-98
q0 -12 0.5 -24t0.5 -24h13q51 0 87.5 23.5t60.5 62t35 87.5t11 101q0 37 -7 82t-26.5 84.5t-54.5 66t-91 26.5q-4 0 -7.5 -0.5t-7.5 -0.5h-7v-14q-2 -40 -2.5 -79.5t-1.5 -79.5z" />
    <glyph glyph-name="Egrave" unicode="&#xc8;" horiz-adv-x="530" 
d="M327 315q-6 0 -16 -0.5t-21 -1t-21 -0.5h-15q-8 0 -20 -9t-23.5 -24t-19.5 -35.5t-8 -43.5q0 -22 8 -40t21.5 -31t31.5 -20t37 -7q29 0 52.5 14.5t41 38.5t28.5 54.5t15 61.5l112 -26q0 -46 -16.5 -93t-50 -85t-83.5 -61.5t-117 -23.5q-42 0 -85 11t-77.5 36t-56.5 64
t-22 96q0 36 9 64t23 49t31.5 36.5t35.5 26.5q-21 10 -41 26.5t-35.5 38.5t-25 50t-9.5 60q0 42 17 81t50 69t81 48t111 18q52 0 95.5 -13.5t75 -40.5t49 -67.5t17.5 -94.5l-103 -34q-2 28 -10.5 53.5t-23 45t-35.5 31.5t-49 12q-27 0 -48 -10.5t-36 -26.5t-23 -35.5
t-8 -37.5t8 -36.5t21.5 -34t32 -25t39.5 -9.5q9 0 22 -0.5t23 -1.5zM305 800q-10 0 -20 5l-100 147l70 57l90 -167v-2z" />
    <glyph glyph-name="Eacute" unicode="&#xc9;" horiz-adv-x="530" 
d="M327 315q-6 0 -16 -0.5t-21 -1t-21 -0.5h-15q-8 0 -20 -9t-23.5 -24t-19.5 -35.5t-8 -43.5q0 -22 8 -40t21.5 -31t31.5 -20t37 -7q29 0 52.5 14.5t41 38.5t28.5 54.5t15 61.5l112 -26q0 -46 -16.5 -93t-50 -85t-83.5 -61.5t-117 -23.5q-42 0 -85 11t-77.5 36t-56.5 64
t-22 96q0 36 9 64t23 49t31.5 36.5t35.5 26.5q-21 10 -41 26.5t-35.5 38.5t-25 50t-9.5 60q0 42 17 81t50 69t81 48t111 18q52 0 95.5 -13.5t75 -40.5t49 -67.5t17.5 -94.5l-103 -34q-2 28 -10.5 53.5t-23 45t-35.5 31.5t-49 12q-27 0 -48 -10.5t-36 -26.5t-23 -35.5
t-8 -37.5t8 -36.5t21.5 -34t32 -25t39.5 -9.5q9 0 22 -0.5t23 -1.5zM185 853l90 167l70 -57l-100 -147q-10 -5 -20 -5l-40 40v2z" />
    <glyph glyph-name="Ecircumflex" unicode="&#xca;" horiz-adv-x="530" 
d="M10 541q0 42 17 81t50 69t81 48t111 18q52 0 95.5 -13.5t75 -40.5t49 -67.5t17.5 -94.5l-103 -34q-2 28 -10.5 53.5t-23 45t-35.5 31.5t-49 12q-27 0 -48 -10.5t-36 -26.5t-23 -35.5t-8 -37.5t8 -36.5t21.5 -34t32 -25t39.5 -9.5q9 0 22 -0.5t23 -1.5l11 -117
q-6 0 -16 -0.5t-21 -1t-21 -0.5h-15q-8 0 -20 -9t-23.5 -24t-19.5 -35.5t-8 -43.5q0 -22 8 -40t21.5 -31t31.5 -20t37 -7q29 0 52.5 14.5t41 38.5t28.5 54.5t15 61.5l112 -26q0 -46 -16.5 -93t-50 -85t-83.5 -61.5t-117 -23.5q-42 0 -85 11t-77.5 36t-56.5 64t-22 96
q0 36 9 64t23 49t31.5 36.5t35.5 26.5q-21 10 -41 26.5t-35.5 38.5t-25 50t-9.5 60zM246 1015q8 5 20 5q10 0 18 -5l100 -147l-70 -57l-49 91l-49 -91l-70 57z" />
    <glyph glyph-name="Edieresis" unicode="&#xcb;" horiz-adv-x="530" 
d="M327 315q-6 0 -16 -0.5t-21 -1t-21 -0.5h-15q-8 0 -20 -9t-23.5 -24t-19.5 -35.5t-8 -43.5q0 -22 8 -40t21.5 -31t31.5 -20t37 -7q29 0 52.5 14.5t41 38.5t28.5 54.5t15 61.5l112 -26q0 -46 -16.5 -93t-50 -85t-83.5 -61.5t-117 -23.5q-42 0 -85 11t-77.5 36t-56.5 64
t-22 96q0 36 9 64t23 49t31.5 36.5t35.5 26.5q-21 10 -41 26.5t-35.5 38.5t-25 50t-9.5 60q0 42 17 81t50 69t81 48t111 18q52 0 95.5 -13.5t75 -40.5t49 -67.5t17.5 -94.5l-103 -34q-2 28 -10.5 53.5t-23 45t-35.5 31.5t-49 12q-27 0 -48 -10.5t-36 -26.5t-23 -35.5
t-8 -37.5t8 -36.5t21.5 -34t32 -25t39.5 -9.5q9 0 22 -0.5t23 -1.5zM276 860q0 23 13.5 36t36.5 13t36 -13t13 -36t-13 -36.5t-36 -13.5t-36.5 13.5t-13.5 36.5zM156 860q0 23 13.5 36t36.5 13t36 -13t13 -36t-13 -36.5t-36 -13.5t-36.5 13.5t-13.5 36.5z" />
    <glyph glyph-name="Igrave" unicode="&#xcc;" horiz-adv-x="227" 
d="M37 -15v48t-0.5 90t-0.5 117.5v130.5v130v115.5v86t1 43.5l162 -5q-3 -143 -10.5 -296.5t-7.5 -304.5q0 -19 0.5 -37.5t0.5 -37.5v-16.5t-0.5 -21.5t-1.5 -21t-3 -15zM153 800q-10 0 -20 5l-100 147l70 57l90 -167v-2z" />
    <glyph glyph-name="Iacute" unicode="&#xcd;" horiz-adv-x="227" 
d="M37 -15v48t-0.5 90t-0.5 117.5v130.5v130v115.5v86t1 43.5l162 -5q-3 -143 -10.5 -296.5t-7.5 -304.5q0 -19 0.5 -37.5t0.5 -37.5v-16.5t-0.5 -21.5t-1.5 -21t-3 -15zM34 853l90 167l70 -57l-100 -147q-10 -5 -20 -5l-40 40v2z" />
    <glyph glyph-name="Icircumflex" unicode="&#xce;" horiz-adv-x="227" 
d="M37 -15v48t-0.5 90t-0.5 117.5v130.5v130v115.5v86t1 43.5l162 -5q-3 -143 -10.5 -296.5t-7.5 -304.5q0 -19 0.5 -37.5t0.5 -37.5v-16.5t-0.5 -21.5t-1.5 -21t-3 -15zM-5 868l100 147q8 5 20 5q10 0 18 -5l100 -147l-70 -57l-49 91l-49 -91z" />
    <glyph glyph-name="Idieresis" unicode="&#xcf;" horiz-adv-x="227" 
d="M37 -15v48t-0.5 90t-0.5 117.5v130.5v130v115.5v86t1 43.5l162 -5q-3 -143 -10.5 -296.5t-7.5 -304.5q0 -19 0.5 -37.5t0.5 -37.5v-16.5t-0.5 -21.5t-1.5 -21t-3 -15zM124 860q0 23 13.5 36t36.5 13t36 -13t13 -36t-13 -36.5t-36 -13.5t-36.5 13.5t-13.5 36.5zM4 860
q0 23 13.5 36t36.5 13t36 -13t13 -36t-13 -36.5t-36 -13.5t-36.5 13.5t-13.5 36.5z" />
    <glyph glyph-name="Lslash" unicode="&#x141;" horiz-adv-x="444" 
d="M226 454q7 5 13 9t13 8q26 17 53 34t53 34l78 -90q-6 -8 -15 -13q-12 -8 -24.5 -15.5t-24.5 -15.5l-101 -64q-12 -8 -23.5 -15t-23.5 -15q-1 -43 -1 -85.5v-85.5v-47l201 14v-122q-8 0 -38 -0.5t-70.5 -1.5t-86 -1.5t-86.5 -1.5t-71.5 -1.5t-40.5 -0.5l-4 101l39 3
l-2 127q-11 -8 -22.5 -15t-23.5 -14l-70 98l114 72l-6 394l178 -5q0 -13 -0.5 -30t-1 -34.5t-1.5 -34.5t-1 -30q-2 -39 -2.5 -78t-1.5 -78z" />
    <glyph glyph-name="Ntilde" unicode="&#xd1;" horiz-adv-x="567" 
d="M192 740l192 -400l-4 400l154 3l-22 -756l-134 -3l-195 383l-17 -380h-124l-8 752zM334 766q-21 0 -36.5 8.5t-26.5 18t-18 18t-13 8.5q-8 0 -15 -14.5t-7 -26.5l-78 15q0 20 7.5 42t20.5 40t30.5 29.5t36.5 11.5q17 0 30.5 -8.5t24.5 -18.5t20 -18.5t17 -8.5q7 0 11 6
t6.5 14t3.5 15.5t1 9.5l79 -11q0 -22 -5.5 -45t-16.5 -42t-29 -31t-43 -12z" />
    <glyph glyph-name="Ograve" unicode="&#xd2;" horiz-adv-x="599" 
d="M296 -16q-69 0 -122 28t-89.5 78.5t-55.5 121.5t-19 156q0 78 17 149t53 124.5t92.5 85t135.5 31.5q69 0 119.5 -23t73.5 -59l1 1q18 -22 34 -48.5t28 -61t18.5 -78t6.5 -98.5q0 -92 -20 -167t-57.5 -128.5t-92 -82.5t-123.5 -29zM172 356q0 -128 38 -195.5t100 -67.5
q35 0 64 21.5t49.5 60.5t31.5 92t11 116q0 69 -13.5 119.5t-38.5 92.5l-18 -7q-2 25 -12 39t-22 21t-24 8.5t-17 1.5q-34 0 -61.5 -23t-47 -63.5t-30 -95.5t-10.5 -120zM220 952l70 57l90 -167v-2l-40 -40q-10 0 -20 5z" />
    <glyph glyph-name="Oacute" unicode="&#xd3;" horiz-adv-x="599" 
d="M296 -16q-69 0 -122 28t-89.5 78.5t-55.5 121.5t-19 156q0 78 17 149t53 124.5t92.5 85t135.5 31.5q69 0 119.5 -23t73.5 -59l1 1q18 -22 34 -48.5t28 -61t18.5 -78t6.5 -98.5q0 -92 -20 -167t-57.5 -128.5t-92 -82.5t-123.5 -29zM172 356q0 -128 38 -195.5t100 -67.5
q35 0 64 21.5t49.5 60.5t31.5 92t11 116q0 69 -13.5 119.5t-38.5 92.5l-18 -7q-2 25 -12 39t-22 21t-24 8.5t-17 1.5q-34 0 -61.5 -23t-47 -63.5t-30 -95.5t-10.5 -120zM220 851v2l90 167l70 -57l-100 -147q-10 -5 -20 -5z" />
    <glyph glyph-name="Ocircumflex" unicode="&#xd4;" horiz-adv-x="599" 
d="M296 -16q-69 0 -122 28t-89.5 78.5t-55.5 121.5t-19 156q0 78 17 149t53 124.5t92.5 85t135.5 31.5q69 0 119.5 -23t73.5 -59l1 1q18 -22 34 -48.5t28 -61t18.5 -78t6.5 -98.5q0 -92 -20 -167t-57.5 -128.5t-92 -82.5t-123.5 -29zM172 356q0 -128 38 -195.5t100 -67.5
q35 0 64 21.5t49.5 60.5t31.5 92t11 116q0 69 -13.5 119.5t-38.5 92.5l-18 -7q-2 25 -12 39t-22 21t-24 8.5t-17 1.5q-34 0 -61.5 -23t-47 -63.5t-30 -95.5t-10.5 -120zM280 1015q8 5 20 5q10 0 18 -5l100 -147l-70 -57l-49 91l-49 -91l-70 57z" />
    <glyph glyph-name="Otilde" unicode="&#xd5;" horiz-adv-x="599" 
d="M296 -16q-69 0 -122 28t-89.5 78.5t-55.5 121.5t-19 156q0 78 17 149t53 124.5t92.5 85t135.5 31.5q69 0 119.5 -23t73.5 -59l1 1q18 -22 34 -48.5t28 -61t18.5 -78t6.5 -98.5q0 -92 -20 -167t-57.5 -128.5t-92 -82.5t-123.5 -29zM172 356q0 -128 38 -195.5t100 -67.5
q35 0 64 21.5t49.5 60.5t31.5 92t11 116q0 69 -13.5 119.5t-38.5 92.5l-18 -7q-2 25 -12 39t-22 21t-24 8.5t-17 1.5q-34 0 -61.5 -23t-47 -63.5t-30 -95.5t-10.5 -120zM155 814q0 20 7.5 42t20.5 40t30.5 29.5t36.5 11.5q17 0 30.5 -8.5t24.5 -18.5t20 -18.5t17 -8.5
q7 0 11 6t6.5 14t3.5 15.5t1 9.5l79 -11q0 -22 -5.5 -45t-16.5 -42t-29 -31t-43 -12q-21 0 -36.5 8.5t-26.5 18t-18 18t-13 8.5q-8 0 -15 -14.5t-7 -26.5z" />
    <glyph glyph-name="Odieresis" unicode="&#xd6;" horiz-adv-x="599" 
d="M296 -16q-69 0 -122 28t-89.5 78.5t-55.5 121.5t-19 156q0 78 17 149t53 124.5t92.5 85t135.5 31.5q69 0 119.5 -23t73.5 -59l1 1q18 -22 34 -48.5t28 -61t18.5 -78t6.5 -98.5q0 -92 -20 -167t-57.5 -128.5t-92 -82.5t-123.5 -29zM321 658q-34 0 -61.5 -23t-47 -63.5
t-30 -95.5t-10.5 -120q0 -128 38 -195.5t100 -67.5q35 0 64 21.5t49.5 60.5t31.5 92t11 116q0 69 -13.5 119.5t-38.5 92.5l-18 -7q-2 25 -12 39t-22 21t-24 8.5t-17 1.5zM310 880q0 23 13.5 36t36.5 13t36 -13t13 -36t-13 -36.5t-36 -13.5t-36.5 13.5t-13.5 36.5zM190 880
q0 23 13.5 36t36.5 13t36 -13t13 -36t-13 -36.5t-36 -13.5t-36.5 13.5t-13.5 36.5z" />
    <glyph glyph-name="Oslash" unicode="&#xd8;" horiz-adv-x="599" 
d="M10 368q0 78 17 149t53 124.5t92.5 85t135.5 31.5q32 0 61 -5.5t53 -15.5l15 30l101 -12l-37 -79l1 1q18 -22 34 -48.5t28 -61t18.5 -78t6.5 -98.5q0 -92 -20 -167t-57.5 -128.5t-92 -82.5t-123.5 -29q-31 0 -58 5.5t-52 16.5l-8.5 -17t-5.5 -9l-111 20l36 74
q-43 51 -65 125.5t-22 168.5zM240 122q31 -29 70 -29q35 0 64 21.5t49.5 60.5t31.5 92t11 116q0 50 -7 89t-20 73zM374 639q-14 14 -30 16.5t-23 2.5q-34 0 -61.5 -23t-47 -63.5t-30 -95.5t-10.5 -120q0 -64 10 -110z" />
    <glyph glyph-name="OE" unicode="&#x152;" horiz-adv-x="979" 
d="M10 368q0 78 17 149t53 124.5t92.5 85t135.5 31.5q69 0 119.5 -23t73.5 -59l1 1q2 -2 2.5 -3t2.5 -3q32 38 85 62t126 24q52 0 95.5 -13.5t75 -40.5t49 -67.5t17.5 -94.5l-103 -34q-2 28 -10.5 53.5t-23 45t-35.5 31.5t-49 12q-27 0 -48 -10.5t-36 -26.5t-23 -35.5
t-8 -37.5t8 -36.5t21.5 -34t32 -25t39.5 -9.5q9 0 22 -0.5t23 -1.5l11 -117q-6 0 -16 -0.5t-21 -1t-21 -0.5h-15q-8 0 -20 -9t-23.5 -24t-19.5 -35.5t-8 -43.5q0 -22 8 -40t21.5 -31t31.5 -20t37 -7q29 0 52.5 14.5t41 38.5t28.5 54.5t15 61.5l112 -26q0 -46 -16.5 -93
t-50 -85t-83.5 -61.5t-117 -23.5q-30 0 -60.5 5.5t-58.5 17t-51.5 30t-40.5 44.5q-38 -46 -89 -71t-116 -25q-69 0 -122 28t-89.5 78.5t-55.5 121.5t-19 156zM321 658q-34 0 -61.5 -23t-47 -63.5t-30 -95.5t-10.5 -120q0 -128 38 -195.5t100 -67.5q35 0 64 21.5t49.5 60.5
t31.5 92t11 116q0 69 -13.5 119.5t-38.5 92.5l-18 -7q-2 25 -12 39t-22 21t-24 8.5t-17 1.5z" />
    <glyph glyph-name="Scaron" unicode="&#x160;" horiz-adv-x="534" 
d="M159 254q0 -27 5.5 -54.5t19 -50t36.5 -36.5t59 -14q27 0 43.5 8t25.5 20t11.5 25.5t2.5 24.5q0 41 -24.5 67.5t-60.5 48t-79 42t-79 47.5t-60.5 66t-24.5 97q0 59 24.5 99t63 65t84 36t87.5 11q56 0 99 -17.5t71.5 -48t43 -72.5t14.5 -91v-10l-121 -27v4q0 15 -6.5 39
t-20 46.5t-35 38.5t-51.5 16q-21 0 -38 -8.5t-28.5 -21.5t-17.5 -28.5t-6 -30.5q0 -31 24.5 -54t61 -44t79.5 -43t79.5 -52t61 -70t24.5 -97q0 -42 -15 -79.5t-46 -65.5t-77.5 -44t-108.5 -16q-66 0 -113.5 18t-78.5 51t-46 79t-15 101zM218 1020l49 -91l49 91l70 -57
l-100 -147q-8 -5 -20 -5q-10 0 -18 5l-100 147z" />
    <glyph glyph-name="Ugrave" unicode="&#xd9;" horiz-adv-x="524" 
d="M222 -12q-51 0 -86.5 24.5t-58 62t-35 84t-18 90t-6.5 79t-1 52.5q0 30 0.5 67.5t0.5 76.5t1 77t2 68.5t2.5 50.5t2.5 24l158 -3q0 -33 -1 -69.5t-1.5 -72t-1.5 -68t-1 -56.5q0 -23 -0.5 -59t1 -77t5 -82t12 -74t22 -54t34.5 -21q23 0 40 25.5t28 65t18 88t11 95t5 85.5
t1 60v31.5t0.5 49t1.5 54t2 46.5l-1 36l146 1l-21 -605q0 -38 0.5 -77t0.5 -77l-98 -3l-4 103q-28 -45 -67.5 -71.5t-93.5 -26.5zM182 952l70 57l90 -167v-2l-40 -40q-10 0 -20 5z" />
    <glyph glyph-name="Uacute" unicode="&#xda;" horiz-adv-x="524" 
d="M222 -12q-51 0 -86.5 24.5t-58 62t-35 84t-18 90t-6.5 79t-1 52.5q0 30 0.5 67.5t0.5 76.5t1 77t2 68.5t2.5 50.5t2.5 24l158 -3q0 -33 -1 -69.5t-1.5 -72t-1.5 -68t-1 -56.5q0 -23 -0.5 -59t1 -77t5 -82t12 -74t22 -54t34.5 -21q23 0 40 25.5t28 65t18 88t11 95t5 85.5
t1 60v31.5t0.5 49t1.5 54t2 46.5l-1 36l146 1l-21 -605q0 -38 0.5 -77t0.5 -77l-98 -3l-4 103q-28 -45 -67.5 -71.5t-93.5 -26.5zM272 1020l70 -57l-100 -147q-10 -5 -20 -5l-40 40v2z" />
    <glyph glyph-name="Ucircumflex" unicode="&#xdb;" horiz-adv-x="524" 
d="M222 -12q-51 0 -86.5 24.5t-58 62t-35 84t-18 90t-6.5 79t-1 52.5q0 30 0.5 67.5t0.5 76.5t1 77t2 68.5t2.5 50.5t2.5 24l158 -3q0 -33 -1 -69.5t-1.5 -72t-1.5 -68t-1 -56.5q0 -23 -0.5 -59t1 -77t5 -82t12 -74t22 -54t34.5 -21q23 0 40 25.5t28 65t18 88t11 95t5 85.5
t1 60v31.5t0.5 49t1.5 54t2 46.5l-1 36l146 1l-21 -605q0 -38 0.5 -77t0.5 -77l-98 -3l-4 103q-28 -45 -67.5 -71.5t-93.5 -26.5zM243 1015q8 5 20 5q10 0 18 -5l100 -147l-70 -57l-49 91l-49 -91l-70 57z" />
    <glyph glyph-name="Udieresis" unicode="&#xdc;" horiz-adv-x="524" 
d="M222 -12q-51 0 -86.5 24.5t-58 62t-35 84t-18 90t-6.5 79t-1 52.5q0 30 0.5 67.5t0.5 76.5t1 77t2 68.5t2.5 50.5t2.5 24l158 -3q0 -33 -1 -69.5t-1.5 -72t-1.5 -68t-1 -56.5q0 -23 -0.5 -59t1 -77t5 -82t12 -74t22 -54t34.5 -21q23 0 40 25.5t28 65t18 88t11 95t5 85.5
t1 60v31.5t0.5 49t1.5 54t2 46.5l-1 36l146 1l-21 -605q0 -38 0.5 -77t0.5 -77l-98 -3l-4 103q-28 -45 -67.5 -71.5t-93.5 -26.5zM273 930q0 23 13.5 36t36.5 13t36 -13t13 -36t-13 -36.5t-36 -13.5t-36.5 13.5t-13.5 36.5zM153 930q0 23 13.5 36t36.5 13t36 -13t13 -36
t-13 -36.5t-36 -13.5t-36.5 13.5t-13.5 36.5z" />
    <glyph glyph-name="Ydieresis" unicode="&#x178;" horiz-adv-x="544" 
d="M0 742l182 2l107 -278l112 277h148l-199 -405l-3 -25l1 -2h-1l-31 -322l-137 -3l13 312zM333 880q-23 0 -36.5 13.5t-13.5 36.5t13.5 36t36.5 13t36 -13t13 -36t-13 -36.5t-36 -13.5zM213 880q-23 0 -36.5 13.5t-13.5 36.5t13.5 36t36.5 13t36 -13t13 -36t-13 -36.5
t-36 -13.5z" />
    <glyph glyph-name="Yacute" unicode="&#xdd;" horiz-adv-x="544" 
d="M182 744l107 -278l112 277h148l-199 -405l-3 -25l1 -2h-1l-31 -322l-137 -3l13 312l-192 444zM192 853l90 167l70 -57l-100 -147q-10 -5 -20 -5l-40 40v2z" />
    <glyph glyph-name="Zcaron" unicode="&#x17d;" horiz-adv-x="478" 
d="M467 740v-106l-276 -552l247 9v-117h-39h-73t-89.5 -0.5t-89.5 -0.5h-73.5h-41.5l-1 103h1l274 556q-45 -1 -91.5 -1.5t-87 -1t-69 -1t-37.5 -0.5l-1 116zM190 1020l49 -91l49 91l70 -57l-100 -147q-8 -5 -20 -5q-10 0 -18 5l-100 147z" />
    <glyph glyph-name="agrave" unicode="&#xe0;" horiz-adv-x="485" 
d="M5 1l128 613l236 -2l61 -341l30 1l2 -105l-13 -1l30 -166l-125 1l-30 159l-153 -8l-35 -153zM163 831l70 57l89 -167v-2l-39 -40q-12 0 -20 5zM304 266l-49 261l-60 -266z" />
    <glyph glyph-name="aacute" unicode="&#xe1;" horiz-adv-x="485" 
d="M5 1l128 613l236 -2l61 -341l30 1l2 -105l-13 -1l30 -166l-125 1l-30 159l-153 -8l-35 -153zM163 730v2l89 167l70 -57l-100 -147q-8 -5 -20 -5zM304 266l-49 261l-60 -266z" />
    <glyph glyph-name="acircumflex" unicode="&#xe2;" horiz-adv-x="485" 
d="M133 614l236 -2l61 -341l30 1l2 -105l-13 -1l30 -166l-125 1l-30 159l-153 -8l-35 -153l-131 2zM123 747l100 147q12 5 20 5q5 0 9.5 -1.5t9.5 -3.5l100 -147l-70 -57l-50 91l-49 -91zM304 266l-49 261l-60 -266z" />
    <glyph glyph-name="atilde" unicode="&#xe3;" horiz-adv-x="485" 
d="M133 614l236 -2l61 -341l30 1l2 -105l-13 -1l30 -166l-125 1l-30 159l-153 -8l-35 -153l-131 2zM98 682q0 20 7.5 42t20.5 40t30.5 29.5t36.5 11.5q17 0 30.5 -8.5t25 -18.5t20.5 -18.5t17 -8.5q7 0 11 6t6 14t3 15.5t2 9.5l79 -11q0 -22 -5.5 -45t-17 -42t-29.5 -31
t-43 -12q-21 0 -36.5 8.5t-26.5 18t-18 18t-13 8.5q-8 0 -15 -14.5t-7 -26.5zM304 266l-49 261l-60 -266z" />
    <glyph glyph-name="adieresis" unicode="&#xe4;" horiz-adv-x="485" 
d="M5 1l128 613l236 -2l61 -341l30 1l2 -105l-13 -1l30 -166l-125 1l-30 159l-153 -8l-35 -153zM304 266l-49 261l-60 -266zM303 659q-23 0 -36.5 13.5t-13.5 36.5t13.5 36t36.5 13t36 -13t13 -36t-13 -36.5t-36 -13.5zM183 659q-23 0 -36.5 13.5t-13.5 36.5t13.5 36
t36.5 13t36 -13t13 -36t-13 -36.5t-36 -13.5z" />
    <glyph glyph-name="aring" unicode="&#xe5;" horiz-adv-x="485" 
d="M133 614h46q-26 14 -42 40.5t-16 64.5q0 58 36 90t92 32q59 0 87 -33t28 -85q0 -41 -15.5 -68.5t-44.5 -41.5l65 -1l61 -341l30 1l2 -105l-13 -1l30 -166l-125 1l-30 159l-153 -8l-35 -153l-131 2zM304 266l-49 261l-60 -266zM247 767q-26 0 -36 -15.5t-10 -32.5
q0 -23 15.5 -31.5t33.5 -8.5q13 0 23.5 8t10.5 37q0 19 -7 31t-30 12z" />
    <glyph glyph-name="ae" unicode="&#xe6;" horiz-adv-x="730" 
d="M5 1l128 613l217 -2v1l370 1l-20 -126q-4 2 -23 2.5t-47 1.5t-61.5 1h-67.5v-119l150 2l-1 -106l-150 -7q-1 -33 -1 -66.5v-67.5v-11h184l-15 -125q-5 1 -32 2t-63.5 2t-76 1h-70.5h-54h-13v3h-5l-30 159l-153 -8l-35 -153zM304 266l-49 261l-60 -266z" />
    <glyph glyph-name="ccedilla" unicode="&#xe7;" horiz-adv-x="467" 
d="M5 321q0 60 12.5 114.5t40.5 95.5t73.5 65t112.5 24q57 0 97 -17.5t66 -46t37.5 -66t11.5 -77.5l-109 -12q0 18 -4.5 39.5t-15 40t-27.5 30.5t-43 12q-34 0 -55.5 -22t-33 -55.5t-15.5 -72.5t-4 -73q0 -103 25.5 -156t71.5 -53q27 0 45 16.5t28.5 40.5t14.5 50.5t4 45.5
l121 -17q0 -43 -13 -82t-36.5 -69.5t-55.5 -51t-70 -27.5l-6 -24l48 -97q0 -27 -19.5 -47.5t-48 -34t-60.5 -20t-58 -6.5l5 90q5 0 20.5 0.5t31.5 2t28.5 5.5t12.5 10l-58 79q0 5 4 18.5t9 27.5q-36 10 -69.5 33t-60 62t-42.5 94.5t-16 130.5z" />
    <glyph glyph-name="dcroat" unicode="&#x111;" horiz-adv-x="444" 
d="M168 339q-1 -54 -1 -106.5v-106.5v-31q41 0 70.5 21.5t49 54.5t29 72t9.5 73q0 18 -3.5 51.5t-17 66t-40.5 57t-74 24.5h-12h-6v-11q-1 -20 -1.5 -40t-0.5 -40q24 -1 42 -1h24l12 -78q-2 -1 -25 -2.5t-55 -3.5zM-46 425q2 1 13 1h28h31v78l-6 106q14 2 41.5 2.5t56.5 0.5
h70q51 0 97 -13t80 -45t54 -86t20 -137q0 -74 -17 -135.5t-51 -105t-84.5 -67.5t-117.5 -24h-10q-9 0 -23.5 -1t-31 -1.5l-33 -1t-30.5 -0.5q-21 0 -31 2l4 87q3 -1 13 -1l-1 250q-21 -1 -36 -1.5t-21 -0.5z" />
    <glyph glyph-name="egrave" unicode="&#xe8;" horiz-adv-x="395" 
d="M385 614l-21 -126q-4 2 -23 2.5t-46.5 1.5t-61.5 1h-67v-119l150 2l-2 -106l-149 -7q-1 -33 -1 -66.5v-67.5v-12l184 1l-15 -125q-4 1 -22.5 2t-45 1.5t-58 0.5h-61.5h-108v1h-13q0 123 -3.5 247.5t-4.5 247.5l-2 120zM117 831l70 57l90 -167v-2l-39 -40q-12 0 -20 5z
" />
    <glyph glyph-name="eacute" unicode="&#xe9;" horiz-adv-x="395" 
d="M385 614l-21 -126q-4 2 -23 2.5t-46.5 1.5t-61.5 1h-67v-119l150 2l-2 -106l-149 -7q-1 -33 -1 -66.5v-67.5v-12l184 1l-15 -125q-4 1 -22.5 2t-45 1.5t-58 0.5h-61.5h-108v1h-13q0 123 -3.5 247.5t-4.5 247.5l-2 120zM117 730v2l90 167l70 -57l-99 -147q-10 -5 -21 -5z
" />
    <glyph glyph-name="ecircumflex" unicode="&#xea;" horiz-adv-x="395" 
d="M385 614l-21 -126q-4 2 -23 2.5t-46.5 1.5t-61.5 1h-67v-119l150 2l-2 -106l-149 -7q-1 -33 -1 -66.5v-67.5v-12l184 1l-15 -125q-4 1 -22.5 2t-45 1.5t-58 0.5h-61.5h-108v1h-13q0 123 -3.5 247.5t-4.5 247.5l-2 120zM178 894q5 2 9.5 3.5t10.5 1.5q10 0 18 -5l101 -147
l-70 -57l-49 91l-49 -91l-70 57z" />
    <glyph glyph-name="edieresis" unicode="&#xeb;" horiz-adv-x="395" 
d="M15 613l370 1l-21 -126q-4 2 -23 2.5t-46.5 1.5t-61.5 1h-67v-119l150 2l-2 -106l-149 -7q-1 -33 -1 -66.5v-67.5v-12l184 1l-15 -125q-4 1 -22.5 2t-45 1.5t-58 0.5h-61.5h-108v1h-13q0 123 -3.5 247.5t-4.5 247.5zM258 659q-23 0 -36.5 13.5t-13.5 36.5t13.5 36
t36.5 13t36 -13t13 -36t-13 -36.5t-36 -13.5zM138 659q-23 0 -36.5 13.5t-13.5 36.5t13.5 36t36.5 13t36 -13t13 -36t-13 -36.5t-36 -13.5z" />
    <glyph glyph-name="igrave" unicode="&#xec;" horiz-adv-x="203" 
d="M26 -6v52.5t-0.5 94.5t-0.5 115v114t0.5 91.5t0.5 47.5l146 -4q-1 -56 -3.5 -102t-4.5 -90t-4 -91t-2 -106v-59v-13t-0.5 -16.5t-1 -16.5t-1.5 -12zM142 579q-10 0 -20 5l-100 147l70 57l90 -167v-2z" />
    <glyph glyph-name="iacute" unicode="&#xed;" horiz-adv-x="203" 
d="M26 -6v52.5t-0.5 94.5t-0.5 115v114t0.5 91.5t0.5 47.5l146 -4q-1 -56 -3.5 -102t-4.5 -90t-4 -91t-2 -106v-59v-13t-0.5 -16.5t-1 -16.5t-1.5 -12zM22 632l90 167l70 -57l-100 -147q-10 -5 -20 -5l-40 40v2z" />
    <glyph glyph-name="icircumflex" unicode="&#xee;" horiz-adv-x="203" 
d="M26 -6v52.5t-0.5 94.5t-0.5 115v114t0.5 91.5t0.5 47.5l146 -4q-1 -56 -3.5 -102t-4.5 -90t-4 -91t-2 -106v-59v-13t-0.5 -16.5t-1 -16.5t-1.5 -12zM83 794q8 5 20 5q10 0 18 -5l100 -147l-70 -57l-49 91l-49 -91l-71 57z" />
    <glyph glyph-name="idieresis" unicode="&#xef;" horiz-adv-x="203" 
d="M26 -6v52.5t-0.5 94.5t-0.5 115v114t0.5 91.5t0.5 47.5l146 -4q-1 -56 -3.5 -102t-4.5 -90t-4 -91t-2 -106v-59v-13t-0.5 -16.5t-1 -16.5t-1.5 -12zM-8 709q0 23 13.5 36t36.5 13t36 -13t13 -36t-13 -36.5t-36 -13.5t-36.5 13.5t-13.5 36.5zM112 709q0 23 13.5 36
t36.5 13t36 -13t13 -36t-13 -36.5t-36 -13.5t-36.5 13.5t-13.5 36.5z" />
    <glyph glyph-name="lslash" unicode="&#x142;" horiz-adv-x="367" 
d="M-32 224q16 9 31.5 18.5t31.5 18.5l-6 351l155 -4q0 -20 -1.5 -50t-2.5 -51q-2 -39 -2.5 -78.5t-1.5 -78.5l30 18t30 17l48 -57q-5 -6 -19.5 -15t-21.5 -12l-65 -40q-1 -1 -1.5 -1t-1.5 -1v-134v-30l173 13v-109q-7 0 -30.5 -0.5t-55 -1t-68 -1.5t-68.5 -1.5t-56 -1
t-32 -0.5l-3 92h3l-2 88l-21 -12z" />
    <glyph glyph-name="ntilde" unicode="&#xf1;" horiz-adv-x="474" 
d="M164 605l154 -300l-3 300l133 2l-17 -604l-118 -3l-156 288l-14 -285h-109l-6 601zM287 645q-21 0 -36.5 8.5t-26.5 18t-18 18t-13 8.5q-8 0 -15 -14.5t-7 -26.5l-78 15q0 20 7.5 42t20.5 40t30.5 29.5t36.5 11.5q17 0 30.5 -8.5t24.5 -18.5t20 -18.5t17 -8.5q7 0 11 6
t6.5 14t3.5 15.5t1 9.5l79 -11q0 -22 -5.5 -45t-16.5 -42t-29 -31t-43 -12z" />
    <glyph glyph-name="ograve" unicode="&#xf2;" horiz-adv-x="495" 
d="M237 -6q-49 0 -90 17t-70.5 53t-46 92.5t-16.5 136.5q0 157 63.5 241t182.5 84q37 0 63 -8t43.5 -20.5t28 -29.5t14.5 -35l10 5q29 -35 43.5 -83.5t14.5 -124.5q0 -155 -61 -241.5t-179 -86.5zM157 295q0 -100 27.5 -152.5t78.5 -52.5q53 0 80 62t27 193q0 26 -3.5 58.5
t-20.5 64.5l-13 -7q-6 30 -28 45.5t-45 15.5t-42 -16.5t-32.5 -46t-21 -71.5t-7.5 -93zM167 831l71 57l90 -167v-2l-41 -40q-9 0 -19 5z" />
    <glyph glyph-name="oacute" unicode="&#xf3;" horiz-adv-x="495" 
d="M237 -6q-49 0 -90 17t-70.5 53t-46 92.5t-16.5 136.5q0 157 63.5 241t182.5 84q37 0 63 -8t43.5 -20.5t28 -29.5t14.5 -35l10 5q29 -35 43.5 -83.5t14.5 -124.5q0 -155 -61 -241.5t-179 -86.5zM157 295q0 -100 27.5 -152.5t78.5 -52.5q53 0 80 62t27 193q0 26 -3.5 58.5
t-20.5 64.5l-13 -7q-6 30 -28 45.5t-45 15.5t-42 -16.5t-32.5 -46t-21 -71.5t-7.5 -93zM257 899l71 -57l-100 -147q-12 -5 -21 -5l-40 40v2z" />
    <glyph glyph-name="ocircumflex" unicode="&#xf4;" horiz-adv-x="495" 
d="M237 -6q-49 0 -90 17t-70.5 53t-46 92.5t-16.5 136.5q0 157 63.5 241t182.5 84q37 0 63 -8t43.5 -20.5t28 -29.5t14.5 -35l10 5q29 -35 43.5 -83.5t14.5 -124.5q0 -155 -61 -241.5t-179 -86.5zM157 295q0 -100 27.5 -152.5t78.5 -52.5q53 0 80 62t27 193q0 26 -3.5 58.5
t-20.5 64.5l-13 -7q-6 30 -28 45.5t-45 15.5t-42 -16.5t-32.5 -46t-21 -71.5t-7.5 -93zM228 894q5 2 9 3t9 2h3q5 -1 9.5 -2t8.5 -3l99 -147l-69 -57l-49 91l-49 -91l-71 57z" />
    <glyph glyph-name="otilde" unicode="&#xf5;" horiz-adv-x="495" 
d="M237 -6q-49 0 -90 17t-70.5 53t-46 92.5t-16.5 136.5q0 157 63.5 241t182.5 84q37 0 63 -8t43.5 -20.5t28 -29.5t14.5 -35l10 5q29 -35 43.5 -83.5t14.5 -124.5q0 -155 -61 -241.5t-179 -86.5zM157 295q0 -100 27.5 -152.5t78.5 -52.5q53 0 80 62t27 193q0 26 -3.5 58.5
t-20.5 64.5l-13 -7q-6 30 -28 45.5t-45 15.5t-42 -16.5t-32.5 -46t-21 -71.5t-7.5 -93zM103 682q0 20 8 42t21 40t30.5 29.5t36.5 11.5q17 0 30.5 -8.5t24.5 -18.5t19.5 -18.5t16.5 -8.5q7 0 11 6t6.5 14t3.5 15.5t1 9.5l79 -11q0 -22 -5 -45t-16.5 -42t-29 -31t-42.5 -12
q-22 0 -37.5 8.5t-26.5 18t-18 18t-13 8.5q-8 0 -15 -14.5t-7 -26.5z" />
    <glyph glyph-name="odieresis" unicode="&#xf6;" horiz-adv-x="495" 
d="M237 -6q-49 0 -90 17t-70.5 53t-46 92.5t-16.5 136.5q0 157 63.5 241t182.5 84q37 0 63 -8t43.5 -20.5t28 -29.5t14.5 -35l10 5q29 -35 43.5 -83.5t14.5 -124.5q0 -155 -61 -241.5t-179 -86.5zM157 295q0 -100 27.5 -152.5t78.5 -52.5q53 0 80 62t27 193q0 26 -3.5 58.5
t-20.5 64.5l-13 -7q-6 30 -28 45.5t-45 15.5t-42 -16.5t-32.5 -46t-21 -71.5t-7.5 -93zM258 709q0 23 13.5 36t36.5 13t36 -13t13 -36t-13 -36.5t-36 -13.5t-36.5 13.5t-13.5 36.5zM188 659q-23 0 -36.5 13.5t-13.5 36.5t13.5 36t36.5 13t36 -13t13 -36t-13 -36.5t-36 -13.5
z" />
    <glyph glyph-name="oslash" unicode="&#xf8;" horiz-adv-x="495" 
d="M11 -58l62 126q-28 36 -43.5 91.5t-15.5 133.5q0 157 63.5 241t182.5 84q46 0 76 -12l51 103l101 -12l-80 -170q1 -1 1 -2l10 5q29 -35 43.5 -83.5t14.5 -124.5q0 -155 -61 -241.5t-179 -86.5q-20 0 -38.5 2.5t-35.5 8.5q-6 -14 -12.5 -27.5t-12.5 -25t-10 -20t-6 -10.5z
M211 109q22 -19 52 -19q53 0 80 62t27 193q0 18 -1.5 39.5t-6.5 43.5zM292 515q-19 7 -32 7q-23 0 -42 -16.5t-32.5 -46t-21 -71.5t-7.5 -93q0 -14 0.5 -26.5t1.5 -24.5z" />
    <glyph glyph-name="oe" unicode="&#x153;" horiz-adv-x="750" 
d="M237 -6q-49 0 -90 17t-70.5 53t-46 92.5t-16.5 136.5q0 157 63.5 241t182.5 84q39 0 66 -8.5t44 -22.5v26l370 1l-21 -126q-4 1 -23 2t-46.5 1.5t-61.5 1t-67 0.5v-119l150 2l-2 -105l-149 -7q-1 -34 -1 -67.5v-67.5v-12l184 1l-15 -125q-4 1 -23 2t-45.5 1.5t-57.5 0.5
h-61h-108v1h-14v43q-56 -47 -142 -47zM157 295q0 -100 27.5 -152.5t78.5 -52.5q53 0 80 62t27 193q0 26 -3.5 58.5t-20.5 64.5l-13 -7q-6 30 -28 45.5t-45 15.5t-42 -16.5t-32.5 -46t-21 -71.5t-7.5 -93z" />
    <glyph glyph-name="scaron" unicode="&#x161;" horiz-adv-x="453" 
d="M147 213q0 -21 3 -40.5t11 -35t21 -24.5t34 -9q14 0 27.5 4.5t24.5 13t18 21t7 28.5q0 27 -18.5 45.5t-46.5 34.5t-61 32t-61 38t-46.5 52.5t-18.5 75.5q0 48 21 80.5t53 52.5t69.5 28.5t70.5 8.5q44 0 77.5 -13.5t56 -37.5t34 -57t11.5 -72v-7l-95 -22v3q0 12 -5 31
t-15.5 36.5t-26.5 30t-39 12.5q-18 0 -31.5 -8t-22.5 -20t-13.5 -26t-4.5 -25q0 -24 19 -42.5t47.5 -35t61.5 -34t61.5 -40t47.5 -53.5t19 -74q0 -36 -14 -69.5t-41 -59.5t-66 -42t-89 -16q-51 0 -88.5 17t-61.5 46t-36 68t-12 82zM108 782l70 57l49 -91l49 91l70 -57
l-100 -147q-8 -5 -20 -5q-10 0 -18 5z" />
    <glyph glyph-name="ugrave" unicode="&#xf9;" horiz-adv-x="486" 
d="M29 357q0 20 0.5 59.5t1 80t2 72t3.5 35.5l146 -2q0 -26 -0.5 -55t-1.5 -57.5t-1.5 -54t-0.5 -45.5q0 -18 -0.5 -47.5t0.5 -63t4 -67.5t9.5 -61.5t17.5 -45t28 -17.5q19 0 32 21t22 53.5t14.5 72.5t8.5 78.5t4 70t1 48.5v24t0.5 38l1 42t1.5 37l-1 31l127 1l-17 -481
q0 -30 0.5 -61t0.5 -61l-88 -3l-3 79q-25 -38 -59.5 -61.5t-82.5 -23.5q-56 0 -89.5 33t-51.5 85.5t-23.5 117.5t-5.5 128zM163 831l70 57l90 -167v-2l-40 -40q-10 0 -20 5z" />
    <glyph glyph-name="uacute" unicode="&#xfa;" horiz-adv-x="486" 
d="M199 -7q-56 0 -89.5 33t-51.5 85.5t-23.5 117.5t-5.5 128q0 20 0.5 59.5t1 80t2 72t3.5 35.5l146 -2q0 -26 -0.5 -55t-1.5 -57.5t-1.5 -54t-0.5 -45.5q0 -18 -0.5 -47.5t0.5 -63t4 -67.5t9.5 -61.5t17.5 -45t28 -17.5q19 0 32 21t22 53.5t14.5 72.5t8.5 78.5t4 70t1 48.5
v24t0.5 38l1 42t1.5 37l-1 31l127 1l-17 -481q0 -30 0.5 -61t0.5 -61l-88 -3l-3 79q-25 -38 -59.5 -61.5t-82.5 -23.5zM253 899l70 -57l-100 -147q-10 -5 -20 -5l-40 40v2z" />
    <glyph glyph-name="ucircumflex" unicode="&#xfb;" horiz-adv-x="486" 
d="M199 -7q-56 0 -89.5 33t-51.5 85.5t-23.5 117.5t-5.5 128q0 20 0.5 59.5t1 80t2 72t3.5 35.5l146 -2q0 -26 -0.5 -55t-1.5 -57.5t-1.5 -54t-0.5 -45.5q0 -18 -0.5 -47.5t0.5 -63t4 -67.5t9.5 -61.5t17.5 -45t28 -17.5q19 0 32 21t22 53.5t14.5 72.5t8.5 78.5t4 70t1 48.5
v24t0.5 38l1 42t1.5 37l-1 31l127 1l-17 -481q0 -30 0.5 -61t0.5 -61l-88 -3l-3 79q-25 -38 -59.5 -61.5t-82.5 -23.5zM224 894q8 5 20 5q10 0 18 -5l100 -147l-70 -57l-49 91l-49 -91l-70 57z" />
    <glyph glyph-name="udieresis" unicode="&#xfc;" horiz-adv-x="486" 
d="M29 357q0 20 0.5 59.5t1 80t2 72t3.5 35.5l146 -2q0 -26 -0.5 -55t-1.5 -57.5t-1.5 -54t-0.5 -45.5q0 -18 -0.5 -47.5t0.5 -63t4 -67.5t9.5 -61.5t17.5 -45t28 -17.5q19 0 32 21t22 53.5t14.5 72.5t8.5 78.5t4 70t1 48.5v24t0.5 38l1 42t1.5 37l-1 31l127 1l-17 -481
q0 -30 0.5 -61t0.5 -61l-88 -3l-3 79q-25 -38 -59.5 -61.5t-82.5 -23.5q-56 0 -89.5 33t-51.5 85.5t-23.5 117.5t-5.5 128zM254 809q0 23 13.5 36t35.5 13q23 0 36 -13t13 -36t-13 -36.5t-36 -13.5q-22 0 -35.5 13.5t-13.5 36.5zM134 809q0 23 13.5 36t35.5 13q23 0 36 -13
t13 -36t-13 -36.5t-36 -13.5q-22 0 -35.5 13.5t-13.5 36.5z" />
    <glyph glyph-name="yacute" unicode="&#xfd;" horiz-adv-x="462" 
d="M1 605l159 1l79 -215l90 215h131l-159 -300l-28 -303l-127 -3l9 248zM151 730v2l90 167l70 -57l-100 -147q-10 -5 -20 -5z" />
    <glyph glyph-name="ydieresis" unicode="&#xff;" horiz-adv-x="462" 
d="M160 606l79 -215l90 215h131l-159 -300l-28 -303l-127 -3l9 248l-154 357zM291 759q-23 0 -36.5 13.5t-13.5 36.5t13.5 36t36.5 13t36.5 -13t13.5 -36t-13.5 -36.5t-36.5 -13.5zM172 759q-23 0 -36.5 13.5t-13.5 36.5t13.5 36t36.5 13q22 0 35.5 -13t13.5 -36
t-13.5 -36.5t-35.5 -13.5z" />
    <glyph glyph-name="zcaron" unicode="&#x17e;" horiz-adv-x="398" 
d="M376 601v-96l-203 -415l180 6v-95h-30h-56t-69 -0.5t-69.5 -0.5h-57h-31.5l-1 85h1l187 418q-32 -1 -64 -1.5t-59 -1t-46.5 -0.5h-25.5l-1 104zM80 842l70 57l49 -91l49 91l70 -57l-100 -147q-8 -5 -20 -5q-10 0 -18 5z" />
    </font>
</defs>
</svg>
